<svg width="241" height="94" fill="none" xmlns="http://www.w3.org/2000/svg"><path fill-rule="evenodd" clip-rule="evenodd" d="M183.857.76h27.008l16.005 16.006v24.008l.13-.104v11.753c0 1.63-1.292 2.922-2.866 2.922h-29.277v34.672c0 1.854-1.517 3.372-3.428 3.372H34.422a5.668 5.668 0 0 1-3.934-1.63l-5.957-5.957c-1.067-1.067-1.63-2.472-1.63-3.99V55.346H3.909c-1.574 0-2.922-1.293-2.922-2.922V3.533c0-1.63 1.348-2.922 2.922-2.922h179.938l.011.15z" fill="url(#a)"/><path d="M26.806 55.778v23.844c0 .844.331 1.631.938 2.25l5.792 5.96c.607.563 1.434.957 2.206.957h154.124c.551 0 .993-.45.993-1.012V55.778H26.806z" fill="url(#b)"/><path d="M224.584 52.423V17.638c0-.15-.038-.262-.113-.337L210.366 3.196c-.112-.112-.224-.168-.337-.168H3.908c-.281 0-.45.225-.45.506v48.889c0 .28.169.505.45.505h220.226c.225 0 .45-.224.45-.505z" fill="url(#c)"/><path fill-rule="evenodd" clip-rule="evenodd" d="M52.797 36.666c0 4.327-3.484 7.811-7.755 7.811H14.248l-1.686-2.08 1.686-27.085H42.12c4.27 0 7.755 3.484 7.755 7.755 0 2.472-1.124 4.664-2.922 6.069 3.371.843 5.844 3.933 5.844 7.53zm-27.254-10.34h12.025c1.068 0 1.967-.899 1.967-1.967 0-1.067-.899-1.967-1.967-1.967H25.543v3.934zM42.4 35.43c0-1.068-.843-1.967-1.91-1.967H25.542v3.934H40.49c1.068 0 1.911-.9 1.911-1.967z" fill="url(#d)"/><path d="M90.785 35.71v9.048H57.068l-2.36-2.36 10.34-29.221 2.416 2.416v20.118l20.96-2.417 2.36 2.417z" fill="url(#e)"/><path fill-rule="evenodd" clip-rule="evenodd" d="M123.04 38.914h-17.42l-2.304 5.844H91.627l-2.416-2.36 13.768-28.435 20.117-.786 3.822 2.416 11.463 29.165h-14.498l-.955-2.36.112-3.484zm-2.922-7.474-5.788-14.667-5.788 14.667h11.576z" fill="url(#f)"/><path d="M147.204 30.203c0 3.204 2.641 5.789 5.844 5.789l17.982-2.417 2.417 2.417v8.766h-22.029c-8.036 0-14.554-6.519-14.554-14.555 0-8.091 6.518-14.61 14.554-14.61l19.668-2.36 2.361 2.36v8.766h-20.399a5.84 5.84 0 0 0-5.844 5.844z" fill="url(#g)"/><path d="m199.465 30.203 13.936 14.555h-12.307l-12.981-13.543v13.543h-10.339l-2.417-2.36 10.396-29.165 2.36 2.36v13.599l22.872-15.847 2.416 2.248-13.936 14.61z" fill="url(#h)"/><path fill-rule="evenodd" clip-rule="evenodd" d="m80.996 75.687 5.788 5.9h-8.036l-5.62-5.787h-6.35v5.788h-7.136V61.583h20.005c3.933 0 7.137 3.203 7.137 7.136 0 3.428-2.473 6.35-5.788 6.968zm-1.35-6.855c0-.956-.73-1.686-1.685-1.686H66.778v3.315h11.183c.955 0 1.686-.73 1.686-1.63zm-45.46-7.25h23.152v5.114H41.322v3.035h13.993v5.338H41.322v6.519h-7.137V61.583zm55.183 0h7.08v20.062h-7.08V61.582zm95.474 0-13.599 20.006h-8.429l5.394-7.98h-7.024l-7.474-12.026h8.429l6.8 10.958 7.474-10.958h8.429zm-57.824 10.003c0 5.507-4.496 10.003-10.003 10.003h-17.14V61.583h17.14a9.99 9.99 0 0 1 10.003 10.002zm-7.137 0a4.005 4.005 0 0 0-3.99-3.99h-8.878v7.98h8.878a4.005 4.005 0 0 0 3.99-3.99zm30.289-10.002 7.867 20.005h-7.979l-1.574-3.99h-11.969l-1.574 3.99h-8.036l7.924-20.005h15.341zm-3.709 10.901-3.99-10.059-3.989 10.06h7.979z" fill="url(#i)"/><path fill-rule="evenodd" clip-rule="evenodd" d="M65.047 32.294h23.377v9.104H54.708V12.232h10.34v20.062zm-13.936 1.292c0 4.271-3.484 7.755-7.755 7.755H12.562V12.176h27.872a7.734 7.734 0 0 1 7.755 7.755 7.843 7.843 0 0 1-2.922 6.125 7.726 7.726 0 0 1 5.844 7.53zM22.958 23.19h12.924a1.955 1.955 0 0 0 1.967-1.966c0-1.068-.899-1.911-1.967-1.911H22.958v3.877zm17.813 9.048c0-1.068-.899-1.91-1.967-1.91H22.958v3.877h15.846c1.068 0 1.967-.9 1.967-1.967zm82.325-20.062 11.52 29.165h-11.688l-2.304-5.844h-17.421l-2.304 5.844H89.211l11.52-29.165h22.365zm-5.394 15.847-5.788-14.61-5.788 14.61h11.576zm79.402-1.292 13.937 14.61h-12.307l-12.981-13.599v13.6h-10.34V12.175h10.34V25.72l12.981-13.543h12.307l-13.937 14.555zm-48.046-14.61h22.028v8.766h-20.398a5.804 5.804 0 0 0-5.844 5.844 5.84 5.84 0 0 0 5.844 5.844h20.398v8.71h-22.028c-8.036 0-14.61-6.518-14.61-14.554 0-8.092 6.574-14.61 14.61-14.61z" fill="url(#j)"/><path d="M239.84 67.997c.02.017.02.04.001.072-.709 1.939-2.614 3.703-4.533 4.546-1.019.443-2.045.615-2.898.43-1.107-.243-1.873-.946-2.664-1.619-.795-.656-1.606-1.243-2.741-1.296-.711-.024-1.491.17-2.27.508-.762.342-1.518.811-2.232 1.327-1.438 1.082-2.721 2.417-4.057 3.667-2.184 2.04-4.646 3.961-7.201 5.067a14.72 14.72 0 0 1-1.416.53c-.927.285-1.873.421-2.695.335-.683-.071-1.273-.301-1.689-.741l-2.845-2.977a.93.93 0 0 0 .072.071l.06.05.18.15.017.005c.071.053.143.1.217.141l.085.02a.343.343 0 0 0 .162.075c.031.019.058.031.081.037a.891.891 0 0 0 .165.057l.102.024.187.044.085.02.279.03c.822.086 1.769-.05 2.696-.335.475-.14.947-.316 1.416-.53 2.555-1.106 5.013-3.01 7.201-5.066 1.335-1.25 2.615-2.569 4.053-3.65a10.687 10.687 0 0 1 2.232-1.328c.779-.338 1.559-.531 2.27-.507 1.139.035 1.946.64 2.741 1.296.795.655 1.556 1.376 2.647 1.615.87.188 1.9 0 2.919-.444 1.915-.825 3.824-2.607 4.533-4.545l.008-.034-.013-.022 2.845 2.977z" fill="url(#k)"/><path d="m0 73.864 3.58-3.209L2.808 66l4.403 2.215 4.452-2.125-.871 4.61 3.532 3.3-4.936.632-2.274 4.158-2.177-4.203L0 73.864z" fill="#00B4FF"/><path d="m227.137 7.046 2.619-2.33.209-.185-.049-.275-.599-3.373 3.311 1.626.218.107.219-.106 3.304-1.587-.636 3.372-.052.274.206.188 2.575 2.357-3.649.45-.257.031-.122.228-1.677 3.113-1.637-3.11-.118-.225-.253-.036-3.612-.519z" stroke="#1F22FB"/><defs><linearGradient id="f" x1="80.676" y1="36.209" x2="121.039" y2="-4.154" gradientUnits="userSpaceOnUse"><stop stop-color="#FF3E6C"/><stop offset="1" stop-color="#3400B3"/></linearGradient><linearGradient id="a" x1="43.489" y1="93.389" x2="37.458" y2="2.931" gradientUnits="userSpaceOnUse"><stop stop-color="#00B4FF"/><stop offset="1" stop-color="#2022FC"/></linearGradient><linearGradient id="c" x1="12.302" y1="61.78" x2="206.864" y2="2.762" gradientUnits="userSpaceOnUse"><stop stop-color="#2B085A"/><stop offset="1" stop-color="#130001"/></linearGradient><linearGradient id="d" x1="2.748" y1="34.645" x2="37.453" y2="-.059" gradientUnits="userSpaceOnUse"><stop stop-color="#FF3E6C"/><stop offset="1" stop-color="#3400B3"/></linearGradient><linearGradient id="e" x1="41.032" y1="31.111" x2="74.865" y2="-2.722" gradientUnits="userSpaceOnUse"><stop stop-color="#FF3E6C"/><stop offset="1" stop-color="#3400B3"/></linearGradient><linearGradient id="b" x1="190.848" y1="55.805" x2="26.807" y2="55.805" gradientUnits="userSpaceOnUse"><stop stop-color="#9BDEDF"/><stop offset=".718" stop-color="#fff"/></linearGradient><linearGradient id="g" x1="123.415" y1="31.346" x2="157.51" y2="-2.748" gradientUnits="userSpaceOnUse"><stop stop-color="#FF3E6C"/><stop offset="1" stop-color="#3400B3"/></linearGradient><linearGradient id="h" x1="162.557" y1="31.948" x2="197.356" y2="-2.852" gradientUnits="userSpaceOnUse"><stop stop-color="#FF3E6C"/><stop offset="1" stop-color="#3400B3"/></linearGradient><linearGradient id="i" x1="34.177" y1="61.587" x2="184.851" y2="61.587" gradientUnits="userSpaceOnUse"><stop stop-color="#130001"/><stop offset="1" stop-color="#89003E"/></linearGradient><linearGradient id="j" x1="113.937" y1="12.208" x2="113.937" y2="41.38" gradientUnits="userSpaceOnUse"><stop offset=".282" stop-color="#fff"/><stop offset="1" stop-color="#9BDEDF"/></linearGradient><linearGradient id="k" x1="202.448" y1="77.504" x2="233.446" y2="57.944" gradientUnits="userSpaceOnUse"><stop stop-color="#0F5B7A"/><stop offset=".2" stop-color="#0F5B7A"/><stop offset=".3" stop-color="#00B4FF"/><stop offset=".6" stop-color="#00B4FF"/><stop offset=".7" stop-color="#0F5B7A"/><stop offset=".9" stop-color="#136E94"/><stop offset="1" stop-color="#00B4FF"/></linearGradient></defs></svg>