<svg width="217" height="90" fill="none" xmlns="http://www.w3.org/2000/svg"><path d="M67.5 24c0 15.669-14.92 28.5-33.5 28.5S.5 39.669.5 24C.5 8.332 15.42-4.5 34-4.5S67.5 8.332 67.5 24z" fill="url(#a)" stroke="url(#b)"/><path d="m22.4 14.619 24.45-.082a1.845 1.845 0 0 1 1.805 2.267l-3.7 15.986a1.852 1.852 0 0 1-1.793 1.431l-18.15.062a1.845 1.845 0 0 1-1.785-1.35l-5.095-18.145a1.846 1.846 0 0 0-1.494-1.336l-1.727-.239a1.845 1.845 0 0 1-1.575-1.822 1.853 1.853 0 0 1 1.323-1.794c.255-.076.524-.096.788-.058l3.835.573a1.841 1.841 0 0 1 1.468 1.193l1.065 2.915a.618.618 0 0 0 .586.399zM28.09 40.944a2.596 2.596 0 0 0 2.594-2.598 2.596 2.596 0 0 0-2.595-2.598 2.596 2.596 0 0 0-2.594 2.598 2.596 2.596 0 0 0 2.594 2.599zM40.132 40.901a2.596 2.596 0 0 0 2.594-2.598 2.596 2.596 0 0 0-2.594-2.598 2.596 2.596 0 0 0-2.595 2.598 2.596 2.596 0 0 0 2.595 2.598z" fill="#216DF0"/><path d="m17.08 16.829-4.847-.783a.488.488 0 0 0-.56.405l-.13.812a.489.489 0 0 0 .404.561l4.847.783a.488.488 0 0 0 .56-.405l.13-.813a.489.489 0 0 0-.404-.56zM18.093 20.474l-3.485-.563a.489.489 0 0 0-.56.405l-.131.812a.489.489 0 0 0 .404.561l3.486.563a.488.488 0 0 0 .56-.405l.13-.813a.489.489 0 0 0-.404-.56zM19.27 24.01l-6.893-1.114a.488.488 0 0 0-.56.405l-.13.813a.49.49 0 0 0 .404.56l6.893 1.114a.488.488 0 0 0 .56-.405l.13-.813a.49.49 0 0 0-.404-.56z" fill="#216DF0"/><path d="M40.003 21.378a.89.89 0 0 1-1.064.87.888.888 0 0 1-.645-1.216.89.89 0 0 1 1.643.005.888.888 0 0 1 .066.34zM29.43 21.351a.893.893 0 0 1-1.068.875.89.89 0 0 1-.643-1.223.892.892 0 0 1 1.712.348z" fill="#fff"/><path d="M36.93 27.707a5.31 5.31 0 0 1-6.068 0c-2.644-1.963-2.584-5.864-2.58-6.045 0-.131.15-.239.33-.239.183 0 .328.112.326.239 0 .043-.089 3.753 2.36 5.57.746.547 1.647.84 2.57.838a4.435 4.435 0 0 0 2.576-.84c2.508-1.801 2.404-5.525 2.401-5.568 0-.134.143-.239.327-.239.178 0 .326.108.328.239.008.181.074 4.082-2.57 6.046z" fill="#fff"/><path d="M45.013 22.568c3.859 0 6.987-3.133 6.987-6.998 0-3.864-3.128-6.997-6.987-6.997s-6.987 3.133-6.987 6.997c0 3.865 3.128 6.998 6.987 6.998z" fill="#216DF0"/><path d="M45.013 21.767A6.191 6.191 0 0 0 51.2 15.57a6.191 6.191 0 0 0-6.187-6.196 6.191 6.191 0 0 0-6.187 6.196 6.191 6.191 0 0 0 6.187 6.197z" fill="#fff"/><path d="M48.203 19.15h-.736a.238.238 0 0 1-.239-.24 5.657 5.657 0 0 0-1.648-3.765 5.64 5.64 0 0 0-3.76-1.65.238.238 0 0 1-.237-.239v-.74a.238.238 0 0 1 .252-.238 6.873 6.873 0 0 1 4.61 2.013 6.893 6.893 0 0 1 2.01 4.617.239.239 0 0 1-.252.241zm-2.213 0h-.739a.238.238 0 0 1-.238-.24 3.445 3.445 0 0 0-3.202-3.209.238.238 0 0 1-.238-.238v-.74a.24.24 0 0 1 .257-.238 4.664 4.664 0 0 1 3.043 1.362 4.677 4.677 0 0 1 1.36 3.047.24.24 0 0 1-.243.255zm-3.433 0a.983.983 0 0 1-.965-1.178.986.986 0 0 1 1.341-.719.985.985 0 0 1-.376 1.896z" fill="#216DF0"/><path fill-rule="evenodd" clip-rule="evenodd" d="M187.1 33.523c0 3.494-.811 6.234-2.432 8.219-1.65 2.013-4.082 3.02-7.297 3.02-3.271 0-5.717-1.007-7.339-3.02-1.621-1.985-2.432-4.725-2.432-8.22 0-3.466.811-6.192 2.432-8.177 1.65-1.985 4.096-2.977 7.339-2.977 3.215 0 5.647 1.006 7.297 3.019 1.621 2.04 2.432 4.753 2.432 8.136zm-5.829 0c0-2.153-.308-3.817-.923-4.99-.587-1.203-1.607-1.804-3.061-1.804-2.628 0-3.942 2.265-3.942 6.794 0 4.584 1.314 6.877 3.942 6.877 2.656 0 3.984-2.292 3.984-6.877z" fill="url(#c)"/><path d="m180.139 60.948 20.255-39.125 1.761.922v2.642l-16.187 36.526h-4.11l-1.719-.965z" fill="url(#d)"/><path fill-rule="evenodd" clip-rule="evenodd" d="M216.329 51.052c0 3.466-.825 6.206-2.474 8.219-1.622 2.013-4.054 3.02-7.297 3.02-3.271 0-5.717-1.007-7.339-3.02-1.593-2.013-2.39-4.753-2.39-8.22 0-3.466.811-6.192 2.432-8.177 1.65-1.985 4.082-2.977 7.297-2.977 3.243 0 5.675 1.006 7.297 3.02 1.649 2.04 2.474 4.752 2.474 8.135zm-5.829 0c0-2.153-.308-3.817-.923-4.99-.615-1.203-1.635-1.804-3.061-1.804-2.656 0-3.984 2.264-3.984 6.794 0 4.584 1.328 6.877 3.984 6.877 2.656 0 3.984-2.293 3.984-6.877z" fill="url(#e)"/><path fill-rule="evenodd" clip-rule="evenodd" d="M170.913 84.013a8.71 8.71 0 0 1-3.439-3.313c-.866-1.454-1.3-3.16-1.3-5.116 0-1.93.434-3.62 1.3-5.074a8.628 8.628 0 0 1 3.439-3.355c1.482-.755 3.117-1.132 4.906-1.132 1.762 0 3.369.377 4.823 1.132a8.557 8.557 0 0 1 3.481 3.355c.838 1.453 1.258 3.145 1.258 5.074 0 1.929-.42 3.62-1.258 5.074a8.558 8.558 0 0 1-3.481 3.355c-1.454.783-3.061 1.174-4.823 1.174-1.789 0-3.424-.391-4.906-1.174zm0-5.032c.475.95 1.132 1.677 1.971 2.18.839.504 1.803.755 2.893.755 1.678 0 3.02-.559 4.026-1.677 1.007-1.119 1.51-2.67 1.51-4.655 0-1.314-.238-2.446-.713-3.397-.447-.922-1.09-1.635-1.929-2.139-.839-.503-1.803-.755-2.894-.755-1.09 0-2.054.252-2.893.755-.839.504-1.496 1.216-1.971 2.14-.447.95-.671 2.082-.671 3.396s.224 2.446.671 3.397z" fill="url(#f)"/><path d="M200.813 69.671v-3.355l-1.342-1.006-9.939 1.593c-.391.364-.587.839-.587 1.426l-1.719 15.6 1.719.965h3.984v-8.765h.503l1.258 1.258h5.368V74.2l-1.3-.965-5.829.965v-4.529h7.884z" fill="url(#g)"/><path d="M215.365 69.671v-3.355l-1.342-1.006-9.981 1.593c-.364.364-.545.839-.545 1.426l-1.72 15.6 1.72.965h3.942v-8.765h.545l1.258 1.258h5.326V74.2l-1.3-.965-5.829.965v-4.529h7.926z" fill="url(#h)"/><path fill-rule="evenodd" clip-rule="evenodd" d="m71.777 85.313 2.684-15.265-4.613 4.613H39.53L35 70.384l34.932-49.065h13.084c2.18 0 3.97.7 5.368 2.097 1.426 1.398 2.139 3.16 2.139 5.284v34.052l5.158-4.278 4.571 4.278v11.91h-9.73V89.59H76.39l-4.613-4.277zm4.697-22.561V46.9l.294-12.874h-1.93L55.13 61.996v.756h21.345z" fill="url(#i)"/><path fill-rule="evenodd" clip-rule="evenodd" d="M113 80.406c-4.445-6.122-6.668-14.481-6.668-25.077 0-10.568 2.237-18.885 6.71-24.952 4.473-6.038 11.211-9.058 20.213-9.058 9.03 0 15.782 3.048 20.255 9.142 4.473 6.095 6.709 14.384 6.709 24.868 0 10.596-2.236 18.955-6.709 25.077-4.473 6.123-11.225 9.184-20.255 9.184-9.058 0-15.81-3.061-20.255-9.184zm10.61-8.47c1.957 4.165 5.172 6.248 9.645 6.248 8.415 0 12.622-7.618 12.622-22.855 0-6.961-.95-12.469-2.851-16.523-1.901-4.081-5.158-6.122-9.771-6.122-4.585 0-7.828 2.055-9.729 6.164-1.901 4.11-2.852 9.604-2.852 16.481 0 6.905.979 12.44 2.936 16.607z" fill="url(#j)"/><path fill-rule="evenodd" clip-rule="evenodd" d="M168.313 40.777c-1.622-2.013-2.432-4.752-2.432-8.219 0-3.467.81-6.192 2.432-8.177 1.649-1.985 4.096-2.978 7.339-2.978 3.215 0 5.647 1.007 7.296 3.02 1.622 2.04 2.433 4.752 2.433 8.135 0 3.467-.811 6.206-2.433 8.22-1.649 2.012-4.081 3.019-7.296 3.019-3.271 0-5.718-1.007-7.339-3.02zm7.255-1.342c2.656 0 3.984-2.292 3.984-6.877 0-2.153-.308-3.816-.923-4.99-.587-1.202-1.607-1.803-3.061-1.803-2.628 0-3.942 2.264-3.942 6.793 0 4.585 1.314 6.877 3.942 6.877zm4.571 18.83 16.229-36.484h4.068v2.642l-16.188 36.483h-4.109v-2.642zm17.403-16.355c1.649-1.985 4.082-2.978 7.297-2.978 3.243 0 5.675 1.007 7.297 3.02 1.649 2.04 2.474 4.752 2.474 8.135 0 3.467-.825 6.206-2.474 8.22-1.622 2.012-4.054 3.019-7.297 3.019-3.271 0-5.717-1.007-7.339-3.02-1.593-2.012-2.39-4.752-2.39-8.219 0-3.467.81-6.192 2.432-8.177zm7.255 15.055c2.656 0 3.984-2.293 3.984-6.878 0-2.153-.308-3.816-.923-4.99-.615-1.202-1.635-1.803-3.061-1.803-2.656 0-3.984 2.264-3.984 6.793 0 4.585 1.328 6.877 3.984 6.877z" fill="url(#k)"/><path fill-rule="evenodd" clip-rule="evenodd" d="M169.194 83.048a8.627 8.627 0 0 1-3.439-3.354c-.867-1.426-1.3-3.118-1.3-5.075 0-1.957.433-3.648 1.3-5.074a8.627 8.627 0 0 1 3.439-3.355c1.481-.754 3.117-1.132 4.906-1.132 1.761 0 3.369.377 4.823 1.132a8.555 8.555 0 0 1 3.48 3.355c.839 1.426 1.258 3.117 1.258 5.074 0 1.93-.419 3.62-1.258 5.075a8.555 8.555 0 0 1-3.48 3.354c-1.454.783-3.062 1.175-4.823 1.175-1.789 0-3.425-.392-4.906-1.175zm0-5.032c.475.95 1.132 1.678 1.971 2.18.838.504 1.803.756 2.893.756 1.678 0 3.019-.56 4.026-1.678 1.006-1.118 1.51-2.67 1.51-4.655 0-1.314-.238-2.446-.713-3.396-.448-.95-1.091-1.664-1.929-2.14-.839-.502-1.804-.754-2.894-.754s-2.055.252-2.893.755c-.839.475-1.496 1.188-1.971 2.139-.448.95-.671 2.082-.671 3.396s.223 2.447.671 3.397z" fill="url(#l)"/><path d="M187.813 65.897c.363-.364.853-.545 1.468-.545h10.232v3.354h-8.303v4.53h7.548v3.186h-5.787l-1.258-1.258h-.503v8.765h-3.984V67.365c0-.588.196-1.077.587-1.468z" fill="url(#m)"/><path d="M202.323 65.897c.391-.364.88-.545 1.467-.545h10.275v3.354h-8.346v4.53h7.549v3.186h-5.745l-1.258-1.258h-.546v8.765h-3.942V67.365c0-.588.182-1.077.546-1.468z" fill="url(#n)"/><path fill-rule="evenodd" clip-rule="evenodd" d="M71.861 65.771h-1.929l-4.613 4.613H35V59.69L65.403 17h13.084c2.18 0 3.97.713 5.368 2.139 1.426 1.398 2.139 3.159 2.139 5.284v34.051h9.687v11.91h-9.687v14.929H71.86V65.77zm.084-7.339V42.581l.294-12.875h-1.93L50.6 57.677v.755h21.345z" fill="url(#o)"/><path fill-rule="evenodd" clip-rule="evenodd" d="M108.471 76.087c-4.473-6.123-6.71-14.468-6.71-25.035 0-10.568 2.251-18.885 6.752-24.952 4.473-6.067 11.211-9.1 20.213-9.1 9.03 0 15.782 3.047 20.255 9.142 4.473 6.095 6.709 14.398 6.709 24.91 0 10.567-2.236 18.913-6.709 25.035-4.473 6.15-11.225 9.226-20.255 9.226-9.058 0-15.81-3.075-20.255-9.226zm10.61-8.429c1.957 4.166 5.172 6.248 9.645 6.248 8.415 0 12.622-7.618 12.622-22.854 0-6.962-.95-12.483-2.851-16.565-1.901-4.054-5.158-6.08-9.771-6.08-4.585 0-7.828 2.04-9.729 6.122-1.901 4.11-2.852 9.617-2.852 16.523 0 6.905.979 12.44 2.936 16.606z" fill="url(#p)"/><defs><linearGradient id="i" x1="17.5" y1="70.5" x2="48.966" y2="-8.298" gradientUnits="userSpaceOnUse"><stop stop-color="#00B4FF"/><stop offset="1" stop-color="#3400B3"/></linearGradient><linearGradient id="a" x1="45.138" y1="7" x2="24.39" y2="55.651" gradientUnits="userSpaceOnUse"><stop stop-color="#281E64"/><stop offset="1" stop-color="#231960"/></linearGradient><linearGradient id="c" x1="162.37" y1="38.499" x2="173.389" y2="13.361" gradientUnits="userSpaceOnUse"><stop stop-color="#00B4FF"/><stop offset="1" stop-color="#3400B3"/></linearGradient><linearGradient id="d" x1="174.234" y1="50.703" x2="199.377" y2="14.526" gradientUnits="userSpaceOnUse"><stop stop-color="#00B4FF"/><stop offset="1" stop-color="#3400B3"/></linearGradient><linearGradient id="e" x1="191.599" y1="56.029" x2="202.618" y2="30.89" gradientUnits="userSpaceOnUse"><stop stop-color="#00B4FF"/><stop offset="1" stop-color="#3400B3"/></linearGradient><linearGradient id="f" x1="161.023" y1="79.828" x2="169.553" y2="57.43" gradientUnits="userSpaceOnUse"><stop stop-color="#00B4FF"/><stop offset="1" stop-color="#3400B3"/></linearGradient><linearGradient id="g" x1="183.582" y1="79.417" x2="194.65" y2="59.298" gradientUnits="userSpaceOnUse"><stop stop-color="#00B4FF"/><stop offset="1" stop-color="#3400B3"/></linearGradient><linearGradient id="h" x1="198.133" y1="79.417" x2="209.201" y2="59.298" gradientUnits="userSpaceOnUse"><stop stop-color="#00B4FF"/><stop offset="1" stop-color="#3400B3"/></linearGradient><linearGradient id="b" x1="12.565" y1="45.435" x2="28.86" y2="1.298" gradientUnits="userSpaceOnUse"><stop stop-color="#593DFF"/><stop offset="1" stop-color="#9C8EFF" stop-opacity="0"/></linearGradient><linearGradient id="j" x1="91.88" y1="70.5" x2="127.686" y2="-3.55" gradientUnits="userSpaceOnUse"><stop stop-color="#00B4FF"/><stop offset="1" stop-color="#3400B3"/></linearGradient><linearGradient id="k" x1="186.232" y1="1.051" x2="230.546" y2="45.366" gradientUnits="userSpaceOnUse"><stop stop-color="#fff"/><stop offset="1" stop-color="#9BDEDF"/></linearGradient><linearGradient id="l" x1="174.056" y1="55.47" x2="193.235" y2="74.648" gradientUnits="userSpaceOnUse"><stop stop-color="#fff"/><stop offset="1" stop-color="#9BDEDF"/></linearGradient><linearGradient id="m" x1="197.324" y1="55.243" x2="212.772" y2="70.691" gradientUnits="userSpaceOnUse"><stop stop-color="#fff"/><stop offset="1" stop-color="#9BDEDF"/></linearGradient><linearGradient id="n" x1="211.855" y1="55.243" x2="227.303" y2="70.691" gradientUnits="userSpaceOnUse"><stop stop-color="#fff"/><stop offset="1" stop-color="#9BDEDF"/></linearGradient><linearGradient id="o" x1="35.013" y1="17.011" x2="95.697" y2="17.011" gradientUnits="userSpaceOnUse"><stop offset=".282" stop-color="#fff"/><stop offset="1" stop-color="#9BDEDF"/></linearGradient><linearGradient id="p" x1="171.976" y1="17.011" x2="171.976" y2="85.293" gradientUnits="userSpaceOnUse"><stop offset=".282" stop-color="#fff"/><stop offset="1" stop-color="#9BDEDF"/></linearGradient></defs></svg>