<svg width="1676" height="80" viewBox="0 0 1676 80" fill="none" xmlns="http://www.w3.org/2000/svg">
<rect width="1676" height="80" rx="10" fill="white"/>
<mask id="mask0_4_774" style="mask-type:alpha" maskUnits="userSpaceOnUse" x="0" y="0" width="1676" height="80">
<rect width="1676" height="80" rx="10" fill="white"/>
</mask>
<g mask="url(#mask0_4_774)">
<path d="M169.607 47.9544C170.484 48.4455 170.856 49.2224 171.144 50.5845C169.36 51.1041 167.722 52.0331 166.361 53.2973C166.096 52.3147 165.611 51.7419 164.436 50.7958C165.945 49.5017 167.706 48.5343 169.607 47.9544V47.9544Z" fill="#6E42D3"/>
<g filter="url(#filter0_f_4_774)">
<circle cx="714.28" cy="109.254" r="36.7521" fill="#FFC909"/>
</g>
<g opacity="0.6" filter="url(#filter1_f_4_774)">
<circle cx="328.763" cy="-25.2536" r="36.7521" fill="#242FFA"/>
</g>
<g opacity="0.6" filter="url(#filter2_f_4_774)">
<circle cx="1638.75" cy="-25.2536" r="36.7521" fill="#242FFA"/>
</g>
<g opacity="0.6" filter="url(#filter3_f_4_774)">
<ellipse cx="901.041" cy="-20.622" rx="57.7533" ry="24.3764" fill="#00B4FF"/>
</g>
<g filter="url(#filter4_f_4_774)">
<ellipse cx="1186.06" cy="-8.00393" rx="65.2538" ry="27.0016" fill="#00B4FF"/>
</g>
<g opacity="0.6" filter="url(#filter5_f_4_774)">
<ellipse cx="499.5" cy="86.5" rx="39.5" ry="16.5" fill="#00B4FF"/>
</g>
<g filter="url(#filter6_f_4_774)">
<ellipse cx="102.5" cy="77" rx="67.5" ry="27" fill="#00B4FF"/>
</g>
<g opacity="0.2">
<ellipse cx="1.13377" cy="1.14287" rx="1.13377" ry="1.14287" transform="matrix(0.653623 0.75682 -0.750572 0.660789 1652.36 51.8952)" fill="#242FFA"/>
<ellipse cx="1.13377" cy="1.14287" rx="1.13377" ry="1.14287" transform="matrix(0.653623 0.75682 -0.750572 0.660789 1647.79 55.9227)" fill="#242FFA"/>
<ellipse cx="1.13377" cy="1.14287" rx="1.13377" ry="1.14287" transform="matrix(0.653623 0.75682 -0.750572 0.660789 1643.21 59.9504)" fill="#242FFA"/>
<ellipse cx="1.13377" cy="1.14287" rx="1.13377" ry="1.14287" transform="matrix(0.653623 0.75682 -0.750572 0.660789 1638.64 63.9781)" fill="#242FFA"/>
<ellipse cx="1.13377" cy="1.14287" rx="1.13377" ry="1.14287" transform="matrix(0.653623 0.75682 -0.750572 0.660789 1656.32 56.4713)" fill="#242FFA"/>
<ellipse cx="1.13377" cy="1.14287" rx="1.13377" ry="1.14287" transform="matrix(0.653623 0.75682 -0.750572 0.660789 1651.74 60.4989)" fill="#242FFA"/>
<ellipse cx="1.13377" cy="1.14287" rx="1.13377" ry="1.14287" transform="matrix(0.653623 0.75682 -0.750572 0.660789 1647.17 64.5268)" fill="#242FFA"/>
<ellipse cx="1.13377" cy="1.14287" rx="1.13377" ry="1.14287" transform="matrix(0.653623 0.75682 -0.750572 0.660789 1642.59 68.5545)" fill="#242FFA"/>
<ellipse cx="1.13377" cy="1.14287" rx="1.13377" ry="1.14287" transform="matrix(0.653623 0.75682 -0.750572 0.660789 1660.27 61.0475)" fill="#242FFA"/>
<ellipse cx="1.13377" cy="1.14287" rx="1.13377" ry="1.14287" transform="matrix(0.653623 0.75682 -0.750572 0.660789 1655.69 65.0753)" fill="#242FFA"/>
<ellipse cx="1.13377" cy="1.14287" rx="1.13377" ry="1.14287" transform="matrix(0.653623 0.75682 -0.750572 0.660789 1651.12 69.103)" fill="#242FFA"/>
<ellipse cx="1.13377" cy="1.14287" rx="1.13377" ry="1.14287" transform="matrix(0.653623 0.75682 -0.750572 0.660789 1646.54 73.1307)" fill="#242FFA"/>
<ellipse cx="1.13377" cy="1.14287" rx="1.13377" ry="1.14287" transform="matrix(0.653623 0.75682 -0.750572 0.660789 1664.22 65.624)" fill="#242FFA"/>
<ellipse cx="1.13377" cy="1.14287" rx="1.13377" ry="1.14287" transform="matrix(0.653623 0.75682 -0.750572 0.660789 1659.65 69.6516)" fill="#242FFA"/>
<ellipse cx="1.13377" cy="1.14287" rx="1.13377" ry="1.14287" transform="matrix(0.653623 0.75682 -0.750572 0.660789 1655.07 73.6793)" fill="#242FFA"/>
<ellipse cx="1.13377" cy="1.14287" rx="1.13377" ry="1.14287" transform="matrix(0.653623 0.75682 -0.750572 0.660789 1650.5 77.7069)" fill="#242FFA"/>
<ellipse cx="1.13377" cy="1.14287" rx="1.13377" ry="1.14287" transform="matrix(0.653623 0.75682 -0.750572 0.660789 1668.17 70.2002)" fill="#242FFA"/>
<ellipse cx="1.13377" cy="1.14287" rx="1.13377" ry="1.14287" transform="matrix(0.653623 0.75682 -0.750572 0.660789 1663.6 74.2279)" fill="#242FFA"/>
<ellipse cx="1.13377" cy="1.14287" rx="1.13377" ry="1.14287" transform="matrix(0.653623 0.75682 -0.750572 0.660789 1659.02 78.2557)" fill="#242FFA"/>
<ellipse cx="1.13377" cy="1.14287" rx="1.13377" ry="1.14287" transform="matrix(0.653623 0.75682 -0.750572 0.660789 1672.13 74.7765)" fill="#242FFA"/>
<ellipse cx="1.13377" cy="1.14287" rx="1.13377" ry="1.14287" transform="matrix(0.653623 0.75682 -0.750572 0.660789 1667.55 78.8042)" fill="#242FFA"/>
<ellipse cx="1.13377" cy="1.14287" rx="1.13377" ry="1.14287" transform="matrix(0.653623 0.75682 -0.750572 0.660789 1676.08 79.3528)" fill="#242FFA"/>
<ellipse cx="1.13377" cy="1.14287" rx="1.13377" ry="1.14287" transform="matrix(0.653623 0.75682 -0.750572 0.660789 1634.17 67.59)" fill="#242FFA"/>
<ellipse cx="1.13377" cy="1.14287" rx="1.13377" ry="1.14287" transform="matrix(0.653623 0.75682 -0.750572 0.660789 1629.59 71.6176)" fill="#242FFA"/>
<ellipse cx="1.13377" cy="1.14287" rx="1.13377" ry="1.14287" transform="matrix(0.653623 0.75682 -0.750572 0.660789 1625.02 75.6453)" fill="#242FFA"/>
<ellipse cx="1.13377" cy="1.14287" rx="1.13377" ry="1.14287" transform="matrix(0.653623 0.75682 -0.750572 0.660789 1620.44 79.673)" fill="#242FFA"/>
<ellipse cx="1.13377" cy="1.14287" rx="1.13377" ry="1.14287" transform="matrix(0.653623 0.75682 -0.750572 0.660789 1638.12 72.1663)" fill="#242FFA"/>
<ellipse cx="1.13377" cy="1.14287" rx="1.13377" ry="1.14287" transform="matrix(0.653623 0.75682 -0.750572 0.660789 1633.55 76.1939)" fill="#242FFA"/>
<ellipse cx="1.13377" cy="1.14287" rx="1.13377" ry="1.14287" transform="matrix(0.653623 0.75682 -0.750572 0.660789 1642.07 76.7425)" fill="#242FFA"/>
</g>
<path d="M439.63 11.5034C440.14 9.68445 439.676 8.11433 438.608 8.00376C437.521 7.89319 436.246 9.28916 435.736 11.1219C435.225 12.9518 435.689 14.5109 436.757 14.6215C437.821 14.7321 439.119 13.3361 439.63 11.5034Z" fill="#7E92F1"/>
<path d="M244.458 71.7173C245.116 72.0856 245.395 72.6683 245.611 73.69C244.273 74.0797 243.045 74.7765 242.023 75.7247C241.825 74.9877 241.461 74.5581 240.58 73.8485C241.712 72.8779 243.032 72.1522 244.458 71.7173V71.7173Z" fill="#6E42D3"/>
<path d="M926.956 19.6478C927.01 18.7385 926.868 17.8284 926.541 16.9782C928.319 17.2715 930.129 17.3249 931.921 17.137C932.456 17.8625 932.7 18.7627 932.603 19.6592C930.727 19.881 928.831 19.8772 926.956 19.6478V19.6478Z" fill="#02C4FB"/>
<path d="M811.774 72.8547C812.99 73.3657 813.871 73.394 815.251 72.631C815.313 74.3606 814.95 75.5148 814.148 77.5706C813.049 78.1349 812.344 78.065 811.049 77.5279C811.724 75.7607 812.077 74.4457 811.774 72.8547Z" fill="#F85A40"/>
</g>
<defs>
<filter id="filter0_f_4_774" x="587.528" y="-17.4985" width="253.504" height="253.504" filterUnits="userSpaceOnUse" color-interpolation-filters="sRGB">
<feFlood flood-opacity="0" result="BackgroundImageFix"/>
<feBlend mode="normal" in="SourceGraphic" in2="BackgroundImageFix" result="shape"/>
<feGaussianBlur stdDeviation="45" result="effect1_foregroundBlur_4_774"/>
</filter>
<filter id="filter1_f_4_774" x="212.011" y="-142.006" width="233.504" height="233.504" filterUnits="userSpaceOnUse" color-interpolation-filters="sRGB">
<feFlood flood-opacity="0" result="BackgroundImageFix"/>
<feBlend mode="normal" in="SourceGraphic" in2="BackgroundImageFix" result="shape"/>
<feGaussianBlur stdDeviation="40" result="effect1_foregroundBlur_4_774"/>
</filter>
<filter id="filter2_f_4_774" x="1522" y="-142.006" width="233.504" height="233.504" filterUnits="userSpaceOnUse" color-interpolation-filters="sRGB">
<feFlood flood-opacity="0" result="BackgroundImageFix"/>
<feBlend mode="normal" in="SourceGraphic" in2="BackgroundImageFix" result="shape"/>
<feGaussianBlur stdDeviation="40" result="effect1_foregroundBlur_4_774"/>
</filter>
<filter id="filter3_f_4_774" x="789.288" y="-98.9984" width="223.507" height="156.753" filterUnits="userSpaceOnUse" color-interpolation-filters="sRGB">
<feFlood flood-opacity="0" result="BackgroundImageFix"/>
<feBlend mode="normal" in="SourceGraphic" in2="BackgroundImageFix" result="shape"/>
<feGaussianBlur stdDeviation="27" result="effect1_foregroundBlur_4_774"/>
</filter>
<filter id="filter4_f_4_774" x="996.804" y="-159.005" width="378.508" height="302.003" filterUnits="userSpaceOnUse" color-interpolation-filters="sRGB">
<feFlood flood-opacity="0" result="BackgroundImageFix"/>
<feBlend mode="normal" in="SourceGraphic" in2="BackgroundImageFix" result="shape"/>
<feGaussianBlur stdDeviation="62" result="effect1_foregroundBlur_4_774"/>
</filter>
<filter id="filter5_f_4_774" x="426" y="36" width="147" height="101" filterUnits="userSpaceOnUse" color-interpolation-filters="sRGB">
<feFlood flood-opacity="0" result="BackgroundImageFix"/>
<feBlend mode="normal" in="SourceGraphic" in2="BackgroundImageFix" result="shape"/>
<feGaussianBlur stdDeviation="17" result="effect1_foregroundBlur_4_774"/>
</filter>
<filter id="filter6_f_4_774" x="-49" y="-34" width="303" height="222" filterUnits="userSpaceOnUse" color-interpolation-filters="sRGB">
<feFlood flood-opacity="0" result="BackgroundImageFix"/>
<feBlend mode="normal" in="SourceGraphic" in2="BackgroundImageFix" result="shape"/>
<feGaussianBlur stdDeviation="42" result="effect1_foregroundBlur_4_774"/>
</filter>
</defs>
</svg>
