<svg width="238" height="95" viewBox="0 0 238 95" fill="none" xmlns="http://www.w3.org/2000/svg">
<path d="M203.828 57.4736C202.86 56.3712 201.722 55.6589 200.414 55.3367L195.913 54.2344C197.221 54.5566 198.376 55.2689 199.327 56.3712C200.669 57.9145 201.297 59.797 201.23 62.0186C201.162 64.2402 200.414 66.1057 198.988 67.5981C198.529 68.073 198.053 68.48 197.544 68.8022C197.068 69.0905 196.576 69.328 196.066 69.4975C195.37 69.718 194.622 69.8367 193.824 69.8198C193.756 69.8198 193.671 69.8198 193.603 69.8198C193.111 69.8028 192.652 69.735 192.211 69.6332L196.712 70.7356C197.153 70.8373 197.629 70.9051 198.104 70.9221C198.172 70.9221 198.257 70.9221 198.325 70.9221C199.123 70.9221 199.871 70.8203 200.567 70.5999C201.094 70.4303 201.586 70.1929 202.045 69.9046C202.554 69.5823 203.047 69.1753 203.488 68.7005C204.915 67.1911 205.663 65.3426 205.73 63.1209C205.798 60.8993 205.17 59.0168 203.828 57.4736Z" fill="url(#paint0_linear_13_7952)"/>
<path d="M198.002 46.3145C197.051 46.0771 196.066 45.9414 195.03 45.9075C194.877 45.9075 194.707 45.9075 194.555 45.9075C192.873 45.8905 191.294 46.128 189.782 46.6028C188.661 46.9759 187.574 47.4677 186.538 48.1291C185.519 48.7736 184.551 49.5537 183.633 50.4695C183.515 50.5882 183.396 50.7069 183.277 50.8256C180.406 53.8443 178.912 57.5075 178.759 61.7812C178.623 66.2414 179.982 70.0233 182.852 73.1438C184.89 75.3654 187.285 76.8069 190.003 77.4853L194.504 78.5876C191.769 77.9262 189.391 76.4847 187.353 74.2461C184.483 71.1256 183.107 67.3268 183.26 62.8835C183.396 58.6098 184.89 54.9467 187.778 51.928C187.897 51.8092 188.015 51.6905 188.134 51.5718C189.052 50.656 190.02 49.8759 191.039 49.2315C192.075 48.587 193.145 48.0782 194.283 47.7051C195.794 47.2133 197.374 46.9929 199.056 47.0098C199.208 47.0098 199.378 47.0098 199.531 47.0098C200.567 47.0437 201.552 47.1794 202.503 47.4168L198.002 46.3145Z" fill="url(#paint1_linear_13_7952)"/>
<path d="M208.958 74.4496C205.866 77.5361 202.215 79.0624 198.036 79.0116C193.807 78.9607 190.257 77.3835 187.37 74.2461C184.5 71.1256 183.124 67.3268 183.277 62.8835C183.413 58.4232 185.043 54.6583 188.134 51.5718C191.226 48.4852 194.877 46.9589 199.056 47.0098C203.285 47.0607 206.835 48.6718 209.722 51.8601C212.592 55.0484 213.951 58.8303 213.815 63.2396C213.679 67.632 212.049 71.38 208.958 74.4665V74.4496ZM191.294 62.9683C191.226 65.1899 191.871 67.0724 193.23 68.6157C194.589 70.1589 196.287 70.9221 198.291 70.956C200.312 70.973 202.028 70.2437 203.472 68.7344C204.898 67.225 205.663 65.3595 205.731 63.1379C205.798 60.9162 205.17 59.0338 203.828 57.4905C202.486 55.9642 200.805 55.1841 198.801 55.1501C196.729 55.1332 194.979 55.8624 193.553 57.3718C192.126 58.8811 191.361 60.7466 191.294 62.9683Z" fill="url(#paint2_linear_13_7952)"/>
<g style="mix-blend-mode:multiply">
<path d="M186.538 48.1291C185.519 48.7735 184.551 49.5537 183.633 50.4695C183.515 50.5882 183.396 50.7069 183.277 50.8256C180.491 53.7595 178.963 57.711 178.793 61.3911C184.585 49.2823 191.497 46.1618 191.497 46.1618C190.92 46.2806 190.342 46.4162 189.799 46.6028C188.678 46.9759 187.591 47.4677 186.555 48.1291H186.538Z" fill="#46290E"/>
</g>
<path d="M200.363 14.2618C200.058 14.194 199.735 14.1601 199.429 14.1431C199.378 14.1431 199.344 14.1431 199.293 14.1431C198.75 14.1431 198.206 14.2279 197.68 14.3975C197.255 14.5332 196.847 14.7367 196.457 14.9741C196.049 15.2285 195.676 15.5338 195.336 15.8899C195.234 15.9917 195.149 16.0934 195.064 16.1952L149.562 70.7525C147.558 73.1437 147.677 76.6712 149.8 78.6046C150.428 79.1812 151.176 79.5543 151.957 79.7239L156.594 80.7753C155.812 80.6057 155.082 80.2326 154.437 79.656C152.297 77.7227 152.195 74.1952 154.199 71.804L199.701 17.2466C199.786 17.1449 199.888 17.0262 199.973 16.9414C200.312 16.5852 200.703 16.28 201.094 16.0256C201.484 15.7712 201.892 15.5846 202.317 15.449C202.843 15.2794 203.387 15.1946 203.93 15.1946C203.981 15.1946 204.015 15.1946 204.066 15.1946C204.389 15.1946 204.694 15.2455 205 15.3133L200.363 14.2618Z" fill="url(#paint3_linear_13_7952)"/>
<path d="M203.93 15.1776C205.102 15.1776 206.24 15.5846 207.157 16.4156C209.297 18.349 209.399 21.8764 207.395 24.2677L161.893 78.825C160.755 80.1818 159.175 80.894 157.647 80.894C156.475 80.894 155.337 80.487 154.42 79.656C152.28 77.7227 152.178 74.1952 154.182 71.804L199.684 17.2466C200.822 15.8899 202.402 15.1776 203.93 15.1776Z" fill="url(#paint4_linear_13_7952)"/>
<g style="mix-blend-mode:multiply">
<path d="M178.215 36.3595L167.889 48.7566C169.978 48.0104 171.88 46.7724 173.629 45.0256C176.109 42.5495 177.638 39.6665 178.215 36.3595Z" fill="#46290E"/>
</g>
<path d="M167.566 27.6425C166.598 26.5402 165.46 25.8279 164.152 25.5057L159.651 24.4034C160.959 24.7256 162.114 25.4379 163.065 26.5402C164.407 28.0835 165.035 29.9659 164.967 32.1876C164.899 34.4092 164.152 36.2747 162.725 37.7671C162.267 38.242 161.791 38.649 161.282 38.9712C160.806 39.2595 160.313 39.4969 159.804 39.6665C159.107 39.887 158.36 40.0057 157.562 39.9887C157.494 39.9887 157.409 39.9887 157.341 39.9887C156.849 39.9718 156.39 39.9039 155.948 39.8022L160.449 40.9045C160.891 41.0063 161.366 41.0741 161.842 41.0911C161.91 41.0911 161.995 41.0911 162.063 41.0911C162.861 41.0911 163.608 40.9893 164.305 40.7689C164.831 40.5993 165.324 40.3618 165.782 40.0735C166.292 39.7513 166.785 39.3443 167.226 38.8694C168.653 37.3601 169.4 35.5115 169.468 33.2899C169.536 31.0683 168.908 29.1858 167.566 27.6425Z" fill="url(#paint5_linear_13_7952)"/>
<path d="M161.74 16.4835C160.789 16.246 159.804 16.1104 158.768 16.0765C158.615 16.0765 158.445 16.0765 158.292 16.0765C156.611 16.0595 155.031 16.2969 153.52 16.7718C152.399 17.1449 151.312 17.6367 150.275 18.2981C149.256 18.9425 148.288 19.7227 147.371 20.6384C147.252 20.7572 147.133 20.8759 147.014 20.9946C144.144 24.0133 142.649 27.6765 142.496 31.9501C142.361 36.4104 143.719 40.1923 146.59 43.3127C148.628 45.5344 151.023 46.9759 153.74 47.6542L158.241 48.7566C155.507 48.0952 153.129 46.6537 151.091 44.4151C148.22 41.2946 146.845 37.4958 146.997 33.0525C147.133 28.7788 148.628 25.1156 151.515 22.0969C151.634 21.9782 151.753 21.8595 151.872 21.7408C152.789 20.825 153.757 20.0449 154.776 19.4004C155.812 18.756 156.883 18.2472 158.021 17.8741C159.532 17.3823 161.112 17.1618 162.793 17.1788C162.946 17.1788 163.116 17.1788 163.269 17.1788C164.305 17.2127 165.29 17.3484 166.241 17.5858L161.74 16.4835Z" fill="url(#paint6_linear_13_7952)"/>
<path d="M172.695 44.6016C169.604 47.6882 165.952 49.2145 161.774 49.1636C157.545 49.1128 153.995 47.5356 151.108 44.3981C148.237 41.2777 146.861 37.4788 147.014 33.0356C147.15 28.5753 148.781 24.8104 151.872 21.7239C154.963 18.6373 158.615 17.111 162.793 17.1619C167.022 17.2127 170.572 18.8238 173.46 22.0122C176.33 25.2005 177.689 28.9823 177.553 33.3917C177.417 37.7841 175.786 41.5321 172.695 44.6186V44.6016ZM155.031 33.1203C154.963 35.342 155.609 37.2244 156.967 38.7677C158.326 40.294 160.025 41.0742 162.029 41.1081C164.05 41.125 165.765 40.3958 167.209 38.8864C168.636 37.3771 169.4 35.5116 169.468 33.2899C169.536 31.0683 168.908 29.1858 167.566 27.6426C166.224 26.1162 164.543 25.3361 162.538 25.3022C160.466 25.2853 158.717 26.0145 157.29 27.5239C155.863 29.0332 155.099 30.8987 155.031 33.1203Z" fill="url(#paint7_linear_13_7952)"/>
<g style="mix-blend-mode:multiply">
<path d="M149.613 42.6004C147.779 39.9209 146.912 36.8343 146.997 33.3069C146.556 32.3572 146.063 31.4244 145.537 30.5086C145.418 30.3051 145.197 30.1355 145.18 30.5086C145.18 30.6104 145.18 30.7121 145.18 30.8308C145.18 30.6952 145.18 30.5765 145.18 30.4408C145.18 30.2373 145.095 29.932 144.976 29.6776C144.908 29.4911 144.806 29.3215 144.704 29.1688C144.263 28.5074 143.804 27.88 143.329 27.2525C142.853 28.7449 142.581 30.3221 142.53 32.018C142.395 36.4443 143.736 40.1922 146.607 43.2958C147.609 44.3811 148.679 45.28 149.834 45.9922C149.834 44.839 149.749 43.6858 149.613 42.5665V42.6004Z" fill="#46290E"/>
</g>
<g style="mix-blend-mode:multiply">
<path d="M142.259 31.7127C142.225 32.866 142.293 33.9853 142.446 35.0537C142.904 38.1911 144.229 40.9554 146.42 43.3297C147.439 44.432 148.543 45.3478 149.715 46.0771C149.715 46.0771 149.715 46.0601 149.715 46.0431C150.955 46.8063 152.297 47.3829 153.74 47.7221L158.343 48.8414C158.037 48.7736 157.732 48.6718 157.426 48.587C157.902 48.7396 158.377 48.8584 158.87 48.9601C159.04 45.5513 158.598 42.3461 157.834 39.463C157.545 39.2256 157.256 38.9712 157.001 38.666C155.609 37.1057 154.946 35.1724 155.031 32.8999C155.031 32.6794 155.065 32.4589 155.082 32.2554C152.602 27.3543 149.817 24.3864 149.817 24.3864L145.231 22.5209C143.363 25.1835 142.378 28.2192 142.259 31.6958V31.7127Z" fill="#A7A7A7"/>
</g>
<path d="M117.308 21.5712C116.374 19.0782 115.032 15.2285 109.699 14.8045C107.321 14.6179 105.113 15.0589 103.245 15.9407C103.788 16.2969 104.281 16.7039 104.689 17.1957C107.066 20.0109 107.423 24.1828 106.557 29.084C107.1 29.2197 107.678 29.3723 108.289 29.525C119.397 32.3402 118.242 24.0641 117.308 21.5542V21.5712Z" fill="url(#paint8_radial_13_7952)"/>
<path d="M138.573 23.9625C138.573 23.9625 138.624 23.9625 138.641 23.9625C136.654 21.7408 133.885 20.1467 130.964 20.011C121.418 19.5361 120.79 30.78 120.79 30.78C120.79 30.78 125.987 32.6455 131.185 33.7309C132.187 28.5414 134.174 24.3356 138.573 23.9625Z" fill="url(#paint9_radial_13_7952)"/>
<path d="M138.573 23.9624C136.756 24.115 135.346 24.9291 134.259 26.184C134.616 26.0314 134.972 25.9466 135.346 25.9466C141.817 25.9466 151.617 36.3595 148.9 54.6753C147.116 66.7502 139.728 76.0607 132.764 80.08C141.07 79.7917 152.857 69.0227 155.048 51.0291C156.933 35.5624 147.965 23.1823 138.573 23.9624Z" fill="url(#paint10_radial_13_7952)"/>
<path d="M82.5915 36.97C87.1434 25.5057 98.0815 17.3314 105.674 18.6033C105.402 18.0946 105.079 17.6197 104.706 17.1957C99.5422 11.1074 83.4407 16.0086 77.3262 30.1525C70.1587 46.7893 76.0693 60.0004 81.6573 66.377C78.9907 59.2542 78.2264 47.9595 82.5915 36.97Z" fill="url(#paint11_radial_13_7952)"/>
<g style="mix-blend-mode:screen">
<path d="M112.315 28.8636C111.245 28.8636 110.005 28.677 108.595 28.3209C108.374 28.27 108.153 28.2191 107.95 28.1513C108.697 22.9449 107.95 19.0952 105.64 16.3817C105.64 16.3817 105.64 16.3817 105.64 16.3647C106.608 16.1104 107.627 15.9747 108.646 15.9747C108.969 15.9747 109.291 15.9747 109.614 16.0086C114.064 16.3647 115.202 19.3835 116.102 21.8256L116.153 21.9782C116.663 23.318 117.019 25.8788 115.949 27.4051C115.287 28.3718 114.064 28.8466 112.315 28.8466V28.8636Z" fill="url(#paint12_radial_13_7952)"/>
<path d="M130.234 32.2554C126.871 31.4752 123.66 30.4407 122.132 29.932C122.489 27.5238 124.034 21.215 130.386 21.215C130.556 21.215 130.726 21.215 130.896 21.215C132.696 21.2998 134.531 22.029 136.127 23.284C132.255 24.9121 130.811 29.5419 130.217 32.2384L130.234 32.2554Z" fill="url(#paint13_radial_13_7952)"/>
<path d="M153.248 52.9455C153.146 53.4543 153.282 53.963 153.299 54.4718C153.299 55.0145 153.18 55.5402 153.044 56.066C152.925 56.5069 152.942 57.0665 152.789 57.4736C152.67 57.7958 152.314 57.9654 152.059 58.1858C151.804 58.4063 151.617 58.6946 151.379 58.9151C151.04 59.2203 150.564 59.3899 150.106 59.356C150.021 59.356 149.936 59.356 149.868 59.3051C149.766 59.2373 149.715 59.1186 149.664 58.9999C149.443 58.3893 149.205 57.694 149.511 57.1174C149.698 56.7443 149.851 56.5408 149.919 56.1338C149.97 55.7098 150.089 55.2858 150.14 54.8619C151.634 44.8051 149.545 35.6472 144.416 29.7116C142.547 27.5408 140.407 25.9975 138.284 25.2513C138.42 25.2344 138.556 25.2174 138.709 25.2004C138.947 25.1835 139.201 25.1665 139.456 25.1665C142.53 25.1665 145.639 26.7607 148.22 29.6776C150.87 32.6624 152.551 36.4443 153.401 40.3279C153.859 42.4309 154.097 44.5677 154.097 46.7215C154.097 47.8238 154.063 48.9262 153.944 50.0116C153.893 50.4695 153.91 50.9613 153.859 51.4192C153.791 51.9619 153.367 52.4198 153.265 52.9624L153.248 52.9455Z" fill="url(#paint14_radial_13_7952)"/>
<path d="M78.8208 43.1092C78.1245 43.1092 77.5979 42.4139 77.479 41.7355C77.3432 41.0572 77.479 40.3449 77.4451 39.6496C77.3941 38.632 76.9695 37.6654 76.7657 36.6648C76.3581 34.7145 77.6998 32.408 78.4472 30.6443C82.5914 21.0455 91.6783 15.856 98.1324 15.856C99.6101 15.856 101.546 16.1273 103.007 17.2806C99.2874 17.5858 95.1771 19.5022 91.2876 22.7753C87.0075 26.3876 83.4916 31.2718 81.4195 36.5121C80.6042 38.5642 79.9418 40.6671 79.2285 42.7531C79.1945 42.8548 79.1605 42.9566 79.0756 43.0244C78.9907 43.0923 78.8888 43.1092 78.7869 43.1092H78.8208Z" fill="url(#paint15_radial_13_7952)"/>
</g>
<g style="mix-blend-mode:multiply">
<path d="M144.721 27.2355C146.199 27.897 147.337 28.0835 148.203 27.9139C145.418 25.1835 142.055 23.7081 138.641 23.9624C136.654 21.7408 133.885 20.1467 130.964 20.011C127.89 19.8583 125.75 20.9268 124.238 22.4361C128.246 25.4379 131.949 28.304 131.949 28.304C131.949 28.304 132.543 27.3882 133.902 26.642C134.021 26.4893 134.14 26.3367 134.259 26.201C134.616 26.0484 134.972 25.9636 135.329 25.9636C135.397 25.9636 135.482 25.9636 135.55 25.9636C137.588 25.387 140.56 25.387 144.704 27.2525L144.721 27.2355Z" fill="#ABA270"/>
</g>
<path d="M119.499 15.2115C121.266 11.8875 123.898 6.98633 127.21 5.73136C129.112 5.01908 131.711 4.84948 134.089 6.7489C133.545 4.76469 132.526 3.08574 130.573 2.39042C127.839 1.44071 125.699 2.23779 123.694 3.5606C121.656 5.06995 120.026 7.47814 118.446 9.61498C116.578 12.1419 114.421 17.8741 106.285 18.5015C102.022 18.8238 105.062 21.9442 109.529 24.8612C114.964 22.2495 117.835 18.315 119.499 15.2115Z" fill="#664309"/>
<path d="M109.58 24.0811C105.555 21.4186 104.689 19.8922 104.807 19.4344C104.858 19.2308 105.3 18.9765 106.336 18.8917C113.453 18.349 116.17 14.0244 117.988 11.1753C118.31 10.6665 118.616 10.1747 118.905 9.78464C119.109 9.51329 119.312 9.24195 119.499 8.9706C120.875 7.08814 122.319 5.13785 124.017 3.86592C125.563 2.83141 126.871 2.37352 128.229 2.37352C128.943 2.37352 129.639 2.49223 130.386 2.76358C131.541 3.1706 132.408 3.98463 133.019 5.25656C132.034 4.76475 130.981 4.52732 129.86 4.52732C128.909 4.52732 127.958 4.71387 127.006 5.05305C123.474 6.37586 120.773 11.4297 118.99 14.7876C116.748 18.9934 113.673 22.0291 109.546 24.0642L109.58 24.0811Z" fill="#9C5E02"/>
<path d="M123.355 16.1443C124.034 11.5653 127.499 6.79981 130.624 7.29162C132.306 7.08811 133.681 7.80039 134.548 9.24191C134.446 8.39396 134.31 7.56296 134.089 6.76589C131.711 4.86647 129.096 5.03606 127.21 5.74834C123.898 6.98636 121.266 11.8875 119.499 15.2285C117.852 18.3489 114.964 22.2665 109.529 24.8782C113.572 27.5068 118.769 29.9829 120.739 30.0337C122.149 30.0846 124.374 29.9659 126.786 29.7454C125.478 27.032 122.421 22.4022 123.338 16.1612L123.355 16.1443Z" fill="url(#paint16_linear_13_7952)"/>
<path style="mix-blend-mode:screen" d="M121.554 28.9654C121.317 28.9654 121.079 28.9654 120.875 28.9654C119.193 28.9145 114.692 26.8794 110.752 24.4034C114.794 22.2666 117.852 19.163 120.094 14.9572C121.792 11.7519 124.374 6.91859 127.516 5.73145C128.331 5.42619 129.163 5.27356 129.979 5.27356C131.337 5.27356 132.594 5.69754 133.715 6.56245C133.749 6.69812 133.783 6.85075 133.817 6.98643C133.087 6.46069 132.238 6.18935 131.287 6.18935C131.1 6.18935 130.93 6.18935 130.743 6.22327C130.59 6.20631 130.437 6.18935 130.284 6.18935C126.854 6.18935 123.559 11.1244 122.913 15.5508C122.098 21.1133 124.323 25.404 125.783 28.2531C125.868 28.4227 125.953 28.5923 126.038 28.7449C124.289 28.8975 122.709 28.9654 121.537 28.9654H121.554Z" fill="url(#paint17_linear_13_7952)"/>
<path d="M127.074 16.9074C126.038 11.9723 127.635 7.81734 130.335 7.32552C130.437 7.30857 130.539 7.29161 130.624 7.27465C127.499 6.79979 124.017 11.5483 123.355 16.1273C122.438 22.3682 125.495 26.9981 126.803 29.7115C131.507 29.2706 136.925 28.4057 138.488 27.439C131.253 26.2519 128.127 21.8086 127.091 16.8904L127.074 16.9074Z" fill="#664309"/>
<path d="M126.701 28.9484C126.565 28.6601 126.412 28.3718 126.242 28.0495C124.832 25.3361 122.709 21.232 123.474 16.0086C123.864 13.346 125.172 10.7852 126.718 9.19106C125.733 11.1583 125.512 13.9396 126.106 16.8057C127.278 22.3343 130.726 25.9636 136.127 27.3881C134.072 27.9647 130.59 28.5414 126.701 28.9314V28.9484Z" fill="url(#paint18_linear_13_7952)"/>
<path d="M125.325 2.39045C124.764 2.72963 124.221 3.13665 123.711 3.57759C125.546 2.22086 127.686 1.59337 130.42 2.54308C133.172 3.50975 134.412 7.30858 134.565 9.24192C134.921 12.4302 134.565 15.8051 134.446 17.094C134.497 16.4834 135.023 15.7542 136.076 14.6858C137.044 13.7191 137.877 13.0916 138.692 12.7694C138.165 8.19045 135.465 -0.831774 125.325 2.39045Z" fill="url(#paint19_linear_13_7952)"/>
<g style="mix-blend-mode:soft-light">
<path d="M135.278 15.042C135.38 13.4478 135.431 11.3958 135.21 9.39461C135.057 7.47824 134.021 4.34081 131.864 2.83145C136.569 4.35777 137.877 10.1747 138.199 12.6508C137.452 13.0239 136.671 13.6344 135.787 14.5163C135.601 14.7028 135.431 14.8724 135.278 15.042Z" fill="#EE8B64"/>
</g>
<path d="M138.267 3.0349C134.038 0.100978 129.079 0.100978 125.325 2.39045C135.465 -0.831771 138.165 8.19046 138.692 12.7694C139.864 12.2946 140.968 12.4472 142.327 13.1255C143.431 13.6852 143.991 14.3805 144.042 15.025C144.212 13.787 143.974 6.98636 138.25 3.01794L138.267 3.0349Z" fill="#855605"/>
<path d="M143.482 13.2951C143.227 13.0916 142.921 12.9051 142.581 12.7355C141.647 12.2606 140.832 12.0401 140.051 12.0401C139.745 12.0401 139.456 12.0741 139.15 12.1419C138.709 9.1571 137.027 2.44131 130.981 1.38985C131.049 1.38985 131.117 1.38985 131.202 1.38985C133.546 1.38985 135.889 2.15301 137.962 3.57757C142.004 6.37581 143.21 10.7343 143.482 13.2951Z" fill="#664309"/>
<g style="mix-blend-mode:screen">
<path d="M126.48 2.52619C127.295 2.30572 128.127 2.10221 128.977 1.94958C129.826 1.79695 130.692 1.71215 131.575 1.74607C131.694 1.74607 131.796 1.74607 131.898 1.76303C132.017 1.76303 132.119 1.77999 132.238 1.79695C132.458 1.83087 132.679 1.86478 132.9 1.91566C133.342 2.01742 133.766 2.18701 134.191 2.37356C135.023 2.78057 135.754 3.37414 136.348 4.06946C136.942 4.76479 137.435 5.52794 137.843 6.32502C138.25 7.1221 138.573 7.95309 138.879 8.78409C139.456 10.4461 139.864 12.1589 140.187 13.8549L137.724 14.1771C137.605 12.532 137.418 10.887 137.078 9.2759C136.908 8.47882 136.688 7.69871 136.416 6.93555C136.144 6.18935 135.804 5.46011 135.363 4.81566C134.921 4.17122 134.378 3.61157 133.732 3.17063C133.41 2.96712 133.053 2.78057 132.679 2.6449C132.492 2.56011 132.306 2.52619 132.102 2.45835C132 2.44139 131.898 2.40748 131.813 2.39052C131.711 2.37356 131.609 2.33964 131.507 2.33964C130.709 2.20397 129.86 2.18701 129.028 2.23788C128.178 2.28876 127.346 2.39052 126.497 2.50923L126.48 2.52619Z" fill="#602408"/>
</g>
<g style="mix-blend-mode:screen">
<path d="M107.406 21.7747C111.72 20.0618 115.932 17.8063 117.461 15.6864C119.346 13.0916 122.777 7.35948 125.274 6.42673C123.083 9.5472 117.563 19.8583 122.251 28.287C112.247 33.3916 107.406 21.7747 107.406 21.7747Z" fill="#602408"/>
</g>
<path d="M136.076 14.6858C138.437 12.3285 140.034 11.9723 142.327 13.1256C144.62 14.2788 144.62 15.3133 142.53 17.501C140.441 19.6887 138.981 20.7232 136.484 19.2647C133.987 17.8063 133.664 17.077 136.059 14.6858H136.076Z" fill="url(#paint20_linear_13_7952)"/>
<path style="mix-blend-mode:multiply" d="M138.471 27.456C137.129 27.2355 135.923 26.8963 134.853 26.4723C134.768 26.5741 134.683 26.6928 134.599 26.7946C132.56 25.3191 130.2 24.6407 127.754 24.6916C126.174 24.7255 124.544 25.6413 122.93 27.1677C122.013 24.539 120.535 22.6735 118.446 21.9103C116.629 21.232 114.693 21.1981 112.756 21.6729C112.196 19.994 111.245 18.6542 109.784 17.8062C108.748 18.1454 107.593 18.3829 106.268 18.4846C102.192 18.7899 104.79 21.656 108.935 24.4542C110.667 26.9302 113.843 30.1016 118.531 29.4741C119.448 29.7963 120.213 29.9829 120.739 29.9998C122.149 30.0507 124.374 29.932 126.786 29.7115C131.49 29.2706 136.908 28.4057 138.471 27.439V27.456Z" fill="url(#paint21_radial_13_7952)"/>
<path d="M135.346 25.9297C134.157 25.9297 133.019 26.7946 131.949 28.287C136.858 31.9332 139.847 40.5823 137.537 55.2858C135.278 69.6332 127.975 77.587 121.028 81.0467C121.945 81.5215 123.117 81.8946 124.544 82.149C132.374 83.5057 146.335 71.9057 148.883 54.6583C151.6 36.3425 141.8 25.9297 135.329 25.9297H135.346Z" fill="url(#paint22_radial_13_7952)"/>
<path style="mix-blend-mode:multiply" d="M135.346 25.9297C135.346 25.9297 135.176 25.9297 135.091 25.9297C141.257 26.3197 150.174 35.5624 147.643 51.5718C145.554 64.732 135.516 74.1952 127.975 75.925C125.75 78.1975 123.372 79.8765 121.028 81.0467C121.945 81.5215 123.117 81.8946 124.544 82.149C132.374 83.5057 146.335 71.9057 148.883 54.6583C151.6 36.3425 141.8 25.9297 135.329 25.9297H135.346Z" fill="url(#paint23_linear_13_7952)"/>
<path d="M92.7992 45.923C96.2301 34.9166 103.856 25.1651 111.16 23.3166C110.565 21.485 109.512 20.0604 107.814 19.2803C100.306 15.7359 87.5849 24.385 82.5745 36.9856C76.0184 53.4867 81.0458 70.6324 86.6338 73.4306C87.8227 74.0242 88.9947 74.1768 90.1496 74.0072C87.8057 68.8856 88.3153 60.3213 92.7823 45.9569L92.7992 45.923Z" fill="url(#paint24_radial_13_7952)"/>
<path style="mix-blend-mode:multiply" d="M85.9703 35.1384C89.622 25.7262 97.9615 18.7729 104.467 18.4677C96.9594 18.1624 86.9045 26.0823 82.5904 36.9531C76.0343 53.4542 81.0617 70.5999 86.6497 73.3981C87.8386 73.9917 89.0106 74.1443 90.1655 73.9747C89.3673 72.2449 88.9087 70.125 88.8068 67.5133C84.2039 63.918 80.4673 49.2654 85.9533 35.1554L85.9703 35.1384Z" fill="url(#paint25_linear_13_7952)"/>
<path d="M125.444 26.2519C123.932 26.2858 122.387 27.1677 120.858 28.6601C123.083 35.1385 121.945 46.3993 118.463 57.3718C115.015 68.2426 110.752 76.8239 105.028 79.6391C106.336 81.5215 108.272 82.4373 110.327 82.9291C117.733 84.6929 133.97 77.994 137.537 55.2858C140.764 34.7823 133.681 26.0314 125.444 26.2349V26.2519Z" fill="url(#paint26_radial_13_7952)"/>
<path style="mix-blend-mode:multiply" d="M138.182 42.1765C138.216 44.9069 137.962 47.9595 137.35 51.3683C133.596 72.3466 116.561 78.5367 108.799 76.9086C108.765 76.9086 108.731 76.9086 108.714 76.8917C107.559 78.0788 106.336 79.0116 105.045 79.656C106.353 81.5385 108.289 82.4543 110.344 82.9461C117.75 84.7098 133.987 78.011 137.554 55.3028C138.352 50.215 138.522 45.8566 138.199 42.1765H138.182Z" fill="url(#paint27_linear_13_7952)"/>
<path d="M92.7992 45.9244C97.0964 32.1367 107.984 20.2992 116.578 23.5384C123.609 26.201 123.304 42.0747 118.463 57.3718C113.724 72.3466 107.406 82.98 97.9286 80.1648C88.8248 77.4683 85.4618 69.4975 92.8162 45.9074L92.7992 45.9244Z" fill="url(#paint28_linear_13_7952)"/>
<path style="mix-blend-mode:multiply" d="M119.244 53.0812C114.659 66.6654 108.544 76.3151 99.3553 73.7543C90.5403 71.3122 87.2962 64.0707 94.4128 42.6853C95.4658 39.5309 96.9095 36.4952 98.642 33.7648C96.2301 37.3432 94.192 41.5321 92.8162 45.9245C85.4618 69.4976 88.8248 77.4853 97.9286 80.1818C107.423 82.997 113.724 72.3636 118.463 57.3888C119.601 53.8104 120.484 50.1981 121.079 46.7385C120.569 48.8414 119.958 50.9783 119.244 53.0981V53.0812Z" fill="url(#paint29_linear_13_7952)"/>
<g style="mix-blend-mode:screen">
<path d="M136.501 66.4619C136.399 66.3771 136.331 66.2753 136.297 66.1566C136.11 65.6309 136.518 64.4607 136.637 63.918C136.858 62.9853 137.265 62.0864 137.52 61.1537C138.046 59.2882 138.454 57.4057 138.76 55.4893C141.409 38.6999 137.129 31.2887 133.681 28.1174C134.191 27.5917 134.768 27.1677 135.346 27.1677C137.605 27.1677 140.288 28.711 142.53 31.3057C144.738 33.8496 149.647 41.2098 147.677 54.4888C147.473 55.9133 147.167 57.304 146.794 58.6946C146.522 59.7291 146.573 60.7975 146.029 61.7303C144.925 63.6297 142.819 64.9695 140.662 65.2408C140.254 65.2917 139.83 65.3086 139.439 65.4613C138.862 65.6987 138.437 66.2075 137.894 66.4958C137.469 66.7332 136.841 66.7502 136.501 66.4619Z" fill="url(#paint30_radial_13_7952)"/>
<path d="M87.9416 54.9636C87.9416 54.9636 87.8227 54.9636 87.7718 54.9636C86.362 54.9127 85.0202 53.98 84.4937 52.6911C84.137 51.8092 84.12 50.8086 83.6445 49.9946C83.2368 49.2993 82.5405 48.8244 82.0989 48.1461C80.2136 45.3648 82.6763 40.1244 83.7464 37.4279C85.6826 32.5607 88.9437 28.0156 92.9181 24.6577C96.6547 21.5034 100.714 19.7057 104.06 19.7057C105.249 19.7057 106.353 19.9431 107.304 20.3841C108.255 20.825 108.986 21.5373 109.512 22.5379C102.413 25.2004 95.0582 34.5618 91.6273 45.5513C90.7271 48.4513 90.2006 51.6736 88.7738 54.37C88.6889 54.5396 88.587 54.7092 88.4342 54.811C88.2983 54.9127 88.1114 54.9467 87.9416 54.9467V54.9636Z" fill="url(#paint31_radial_13_7952)"/>
<path d="M119.312 65.5122C119.193 65.4613 119.075 65.4104 118.956 65.3596C116.323 64.0707 119.024 59.6783 119.635 57.745C123.202 46.5011 124.17 35.6303 122.268 29.0332C123.44 28.0157 124.51 27.49 125.478 27.473C125.563 27.473 125.648 27.473 125.733 27.473C128.535 27.473 131.015 28.6432 132.934 30.8818C136.858 35.4607 138.063 44.0759 136.331 55.0993C136.025 57.0496 135.55 58.966 135.244 60.8993C135.006 62.3748 134.191 64.1385 132.679 64.7151C131.983 64.9865 131.219 64.9526 130.488 64.9186C128.127 64.7999 125.733 64.5964 123.457 65.2239C122.794 65.4105 122.149 65.6648 121.469 65.7496C120.756 65.8514 120.009 65.7496 119.329 65.5122H119.312Z" fill="url(#paint32_radial_13_7952)"/>
<path d="M105.011 64.7829C103.924 64.4607 102.922 63.884 101.835 63.5788C100.612 63.2396 99.3214 63.2905 98.0645 63.07C96.1622 62.7139 94.3618 61.6963 93.1729 60.153C90.0477 56.1338 92.6634 50.5203 93.9882 46.2975C97.7758 34.1378 106.574 24.2337 113.589 24.2337C114.472 24.2337 115.338 24.3864 116.136 24.6916C121.826 26.8454 122.336 41.0402 117.274 56.9987C116.442 59.6443 115.678 62.7648 113.758 64.8677C113.113 65.563 112.196 66.0887 111.245 66.0039C110.548 65.9361 109.92 65.563 109.24 65.3595C108.001 64.9694 106.642 65.156 105.368 64.8846C105.232 64.8507 105.113 64.8168 104.977 64.7829H105.011Z" fill="url(#paint33_radial_13_7952)"/>
</g>
<g style="mix-blend-mode:screen">
<path d="M137.571 65.2408C137.622 65.0033 137.69 64.7489 137.724 64.6133C137.775 64.4606 137.809 64.308 137.826 64.1893C137.928 63.7314 138.097 63.2565 138.284 62.7478C138.42 62.3408 138.573 61.9168 138.692 61.4758C139.218 59.6103 139.643 57.66 139.966 55.6758C142.378 40.4127 139.218 32.4928 135.669 28.4057C137.486 28.5583 139.728 29.9489 141.579 32.1027C143.668 34.5279 148.339 41.532 146.454 54.3022C146.267 55.5402 145.995 56.863 145.605 58.3723C145.503 58.7963 145.435 59.1864 145.384 59.5764C145.299 60.17 145.214 60.6788 144.976 61.1027C144.076 62.646 142.327 63.7823 140.509 64.0027C140.441 64.0027 140.356 64.0197 140.288 64.0197C139.915 64.0536 139.456 64.1045 138.981 64.291C138.488 64.4946 138.114 64.7829 137.792 65.0372C137.707 65.1051 137.622 65.1729 137.554 65.2238L137.571 65.2408Z" fill="url(#paint34_radial_13_7952)"/>
<path d="M87.7208 53.7256C86.8376 53.6578 85.9544 53.0473 85.6147 52.2163C85.4958 51.9449 85.4279 51.6057 85.343 51.2496C85.2071 50.673 85.0542 49.9946 84.6976 49.3671C84.4088 48.8584 84.0182 48.4683 83.6955 48.1291C83.4747 47.8917 83.2539 47.6712 83.101 47.4508C81.7592 45.4835 83.5596 41.0742 84.5277 38.6999C84.6466 38.3946 84.7655 38.1233 84.8674 37.8689C86.7357 33.1712 89.8609 28.8127 93.6825 25.5905C97.1983 22.6227 100.969 20.9268 104.026 20.9268C105.045 20.9268 105.945 21.1133 106.744 21.4864C107.049 21.6221 107.321 21.8086 107.559 22.0291C100.578 25.4888 93.6825 34.7145 90.4214 45.1783C90.1327 46.094 89.8779 47.0607 89.6401 47.9935C89.1136 49.9607 88.5871 51.9958 87.7039 53.7256H87.7208Z" fill="url(#paint35_radial_13_7952)"/>
<path d="M120.875 64.5624C120.501 64.5624 120.111 64.4946 119.754 64.3589C119.669 64.325 119.584 64.2911 119.499 64.2402C118.531 63.7654 119.312 61.7303 120.196 59.6782C120.45 59.0846 120.671 58.5589 120.824 58.101C124.34 47.0098 125.376 36.4104 123.677 29.4741C124.374 28.9653 125.002 28.694 125.512 28.694C125.58 28.694 125.665 28.694 125.733 28.694C128.161 28.694 130.318 29.7285 132 31.6618C135.686 35.9694 136.79 44.2285 135.108 54.8958C134.955 55.8455 134.751 56.8291 134.565 57.7788C134.378 58.7285 134.174 59.7121 134.004 60.6958C133.817 61.849 133.206 63.1718 132.221 63.5449C131.966 63.6466 131.626 63.6975 131.168 63.6975C130.947 63.6975 130.726 63.6975 130.522 63.6806L129.877 63.6466C129.011 63.5958 128.11 63.5618 127.21 63.5618C125.597 63.5618 124.306 63.7145 123.117 64.0367C122.896 64.0876 122.692 64.1554 122.472 64.2232C122.047 64.3589 121.656 64.4776 121.283 64.5285C121.147 64.5455 121.011 64.5624 120.858 64.5624H120.875Z" fill="url(#paint36_radial_13_7952)"/>
<path d="M111.465 64.7829C111.465 64.7829 111.397 64.7829 111.364 64.7829C111.092 64.7659 110.769 64.6302 110.412 64.4776C110.158 64.3759 109.903 64.2741 109.631 64.1893C108.799 63.9349 107.984 63.884 107.202 63.8501C106.642 63.8162 106.132 63.7993 105.657 63.6805C105.555 63.6636 105.453 63.6297 105.351 63.5957C104.909 63.4601 104.451 63.2735 103.975 63.07C103.398 62.8326 102.82 62.5782 102.158 62.3916C101.343 62.1712 100.544 62.1033 99.763 62.0355C99.2365 61.9846 98.7609 61.9507 98.2853 61.8659C96.6378 61.5607 95.1262 60.6618 94.141 59.4068C91.8481 56.4729 93.2918 52.2332 94.5487 48.5022C94.7695 47.8577 94.9733 47.2642 95.1601 46.6706C98.7439 35.1893 107.185 25.4717 113.589 25.4717C114.319 25.4717 115.032 25.6074 115.712 25.8448C120.094 27.4899 121.3 40.2601 116.102 56.6425C115.983 56.9987 115.881 57.3548 115.763 57.7279C115.049 60.0343 114.319 62.4256 112.858 64.0536C112.434 64.5115 111.924 64.7998 111.465 64.7998V64.7829Z" fill="url(#paint37_radial_13_7952)"/>
</g>
<path style="mix-blend-mode:multiply" d="M138.658 23.9454C136.671 21.7238 133.902 20.1296 130.981 19.994C124.323 19.6717 121.996 25.0478 121.215 28.3209C121.096 28.4226 120.977 28.5413 120.858 28.6431C120.179 26.6758 119.193 25.1495 117.869 24.1998C117.869 24.1659 117.869 24.132 117.869 24.0981C117.869 23.9794 117.852 23.8776 117.835 23.7758C117.818 23.5554 117.784 23.3519 117.75 23.1484C117.75 23.0466 117.716 22.9618 117.699 22.8601C117.699 22.8601 117.699 22.8431 117.699 22.8261C117.682 22.7413 117.665 22.6396 117.648 22.5548C117.648 22.5548 117.648 22.5548 117.648 22.5378C117.631 22.453 117.614 22.3682 117.58 22.2834C117.563 22.1986 117.529 22.1308 117.512 22.046C117.512 22.046 117.512 22.0291 117.512 22.0121C117.495 21.9443 117.461 21.8764 117.444 21.8086C117.444 21.8086 117.444 21.7916 117.444 21.7747C117.427 21.7068 117.393 21.639 117.376 21.5881C116.442 19.0951 115.1 15.2454 109.767 14.8214C107.389 14.6349 105.181 15.0758 103.313 15.9577C97.0794 11.9723 82.9991 17.1618 77.3941 30.1694C77.2752 30.4577 77.1564 30.746 77.0375 31.0343C77.0035 31.1191 76.9695 31.2209 76.9356 31.3057C76.8506 31.5092 76.7827 31.6957 76.6978 31.8992C76.6638 32.001 76.6128 32.1027 76.5789 32.2045C76.5109 32.3911 76.443 32.5776 76.3751 32.7642C76.3411 32.8659 76.3071 32.9677 76.2731 33.0694C76.2052 33.2729 76.1373 33.4595 76.0693 33.663C76.0354 33.7478 76.0184 33.8326 75.9844 33.9174C75.7976 34.477 75.6277 35.0367 75.4749 35.5963C75.4579 35.6642 75.4409 35.732 75.4239 35.7998C75.373 36.0033 75.305 36.2238 75.2541 36.4273C75.2371 36.5121 75.2201 36.5969 75.1861 36.6817C75.1352 36.8852 75.0842 37.0718 75.0502 37.2753C75.0333 37.3601 75.0163 37.4279 74.9993 37.5127V37.5466C74.9653 37.7332 74.9144 37.9028 74.8804 38.0893C74.8804 38.1232 74.8804 38.1402 74.8634 38.1741C74.8634 38.225 74.8464 38.2589 74.8295 38.3098C74.7955 38.4454 74.7785 38.5811 74.7445 38.7168C74.7445 38.7507 74.7445 38.7846 74.7275 38.8355C74.6936 39.0051 74.6596 39.1916 74.6256 39.3612C74.6256 39.3782 74.6256 39.4121 74.6256 39.4291C74.5917 39.6156 74.5577 39.7852 74.5407 39.9718C74.5407 40.0057 74.5407 40.0396 74.5407 40.0566C74.5067 40.294 74.4728 40.5314 74.4388 40.7688C74.4388 40.8197 74.4388 40.8876 74.4218 40.9384C74.3878 41.1589 74.3709 41.3624 74.3369 41.5829C74.3369 41.6337 74.3369 41.6846 74.3199 41.7525C74.3199 41.7525 74.3199 41.7694 74.3199 41.7864C74.3029 41.956 74.2859 42.1425 74.269 42.3121C74.269 42.346 74.269 42.363 74.269 42.3969C74.269 42.3969 74.269 42.4139 74.269 42.4308C74.269 42.4647 74.269 42.4987 74.269 42.5326C74.269 42.6682 74.252 42.787 74.235 42.9226C74.235 42.9396 74.235 42.9735 74.235 42.9905C74.201 43.3636 74.184 43.7536 74.167 44.1267C74.1501 44.6694 74.1331 45.2121 74.1501 45.7378C74.1501 45.7548 74.1501 45.7718 74.1501 45.7887C74.1501 45.9583 74.1501 46.1109 74.1501 46.2805C74.1501 46.3145 74.1501 46.3314 74.1501 46.3653C74.1501 46.5349 74.1501 46.6876 74.167 46.8571V46.8911C74.201 47.6033 74.252 48.2987 74.3199 48.977C74.3369 49.1297 74.3539 49.2992 74.3709 49.4519C74.3709 49.4858 74.3709 49.5028 74.3709 49.5367C74.3878 49.6893 74.4048 49.8419 74.4388 49.9946C74.4388 50.0285 74.4388 50.0454 74.4388 50.0794C74.4558 50.232 74.4898 50.3846 74.5067 50.5373C74.6086 51.1987 74.7275 51.8261 74.8634 52.4536C74.8634 52.4876 74.8634 52.5045 74.8804 52.5384C74.9144 52.6741 74.9483 52.8098 74.9653 52.9454C74.9653 52.9794 74.9653 53.0133 74.9823 53.0472C75.0163 53.1829 75.0503 53.3185 75.0842 53.4373C75.0842 53.4712 75.0842 53.5051 75.1012 53.5221C75.2541 54.1156 75.4069 54.6922 75.5938 55.2519C75.5938 55.2858 75.5938 55.3028 75.6107 55.3367C75.6447 55.4554 75.6787 55.5741 75.7296 55.6928C75.7296 55.7437 75.7636 55.7776 75.7636 55.8285C75.7976 55.9472 75.8315 56.049 75.8825 56.1677C75.8825 56.2186 75.9165 56.2525 75.9335 56.3033C75.9674 56.4221 76.0184 56.5238 76.0523 56.6425C76.0523 56.6764 76.0863 56.7104 76.0863 56.7612C76.2222 57.1343 76.3751 57.5074 76.5279 57.8805C76.5279 57.9145 76.5449 57.9314 76.5619 57.9653C76.5959 58.0671 76.6468 58.1688 76.6808 58.2706C76.6978 58.3215 76.7317 58.3723 76.7487 58.4232C76.7827 58.525 76.8336 58.6098 76.8676 58.6946C76.8846 58.7454 76.9186 58.7963 76.9356 58.8642C76.9695 58.949 77.0205 59.0507 77.0544 59.1355C77.0714 59.1864 77.1054 59.2373 77.1224 59.3051C77.1564 59.3899 77.2073 59.4747 77.2413 59.5764C77.2583 59.6273 77.2922 59.6782 77.3092 59.7291C77.3941 59.9156 77.496 60.1022 77.581 60.2887C77.581 60.3226 77.6149 60.3396 77.6319 60.3735C77.6659 60.4583 77.7168 60.5262 77.7508 60.611C77.7848 60.6788 77.8188 60.7297 77.8527 60.7975C77.8867 60.8653 77.9376 60.9501 77.9716 61.018C78.0056 61.0858 78.0396 61.1367 78.0735 61.2045C78.1075 61.2724 78.1584 61.3402 78.1924 61.408C78.2264 61.4759 78.2604 61.5437 78.2943 61.5946C78.3283 61.6624 78.3623 61.7303 78.4132 61.7981C78.4472 61.8659 78.4981 61.9338 78.5321 62.0016C78.5661 62.0694 78.6001 62.1203 78.634 62.1881C78.685 62.2729 78.7359 62.3577 78.7869 62.4425C78.8378 62.5273 78.8888 62.5952 78.9228 62.68C78.9737 62.7648 79.0247 62.8326 79.0756 62.9174C79.1096 62.9683 79.1436 63.0191 79.1775 63.087C79.2285 63.1548 79.2625 63.2227 79.3134 63.2905C79.3474 63.3414 79.3813 63.3922 79.4153 63.4431C79.4663 63.511 79.5002 63.5788 79.5512 63.6466C79.5852 63.6975 79.6191 63.7484 79.6531 63.7993C79.7041 63.8671 79.755 63.9349 79.789 64.0028C79.8229 64.0536 79.8569 64.1045 79.8909 64.1384C79.9418 64.2232 80.0098 64.2911 80.0607 64.3759C80.0777 64.4098 80.1117 64.4437 80.1287 64.4776C80.2136 64.5794 80.2815 64.6981 80.3665 64.7998C80.3834 64.8338 80.4174 64.8677 80.4344 64.9016C80.4854 64.9864 80.5533 65.0542 80.6042 65.1221C80.6382 65.156 80.6722 65.2069 80.6892 65.2408C80.7401 65.3086 80.7911 65.3765 80.842 65.4443C80.876 65.4782 80.91 65.5291 80.9439 65.563C80.9949 65.6308 81.0458 65.6987 81.0968 65.7496C81.1308 65.7835 81.1647 65.8174 81.1817 65.8683C81.2327 65.9361 81.3006 66.0039 81.3516 66.0718C81.3855 66.1057 81.4025 66.1396 81.4365 66.1735C81.5214 66.2753 81.6063 66.3601 81.6743 66.4618C81.6743 66.4618 81.6743 66.4958 81.6913 66.5127C81.7252 66.5975 81.7592 66.6823 81.7932 66.7671C81.8271 66.8349 81.8441 66.9028 81.8781 66.9706C81.9121 67.0554 81.946 67.1232 81.963 67.208C81.997 67.2928 82.031 67.3607 82.0649 67.4455C82.1159 67.5642 82.1668 67.6659 82.2178 67.7846C82.2518 67.8525 82.2857 67.9373 82.3197 68.0051C82.3537 68.0729 82.3876 68.1408 82.4046 68.2086C82.4386 68.2765 82.4726 68.3443 82.5065 68.4121C82.5405 68.48 82.5745 68.5478 82.5915 68.5987C82.6254 68.6665 82.6594 68.7513 82.6934 68.8191C82.7273 68.87 82.7443 68.9379 82.7783 68.9887C82.8462 69.1075 82.8972 69.2262 82.9651 69.3449C82.9821 69.3958 83.0161 69.4297 83.0331 69.4805C83.084 69.5653 83.118 69.6332 83.1689 69.718C83.2029 69.7689 83.2199 69.8197 83.2539 69.8706C83.2878 69.9384 83.3388 70.0063 83.3727 70.0741C83.4067 70.125 83.4237 70.1759 83.4577 70.2098C83.5086 70.2776 83.5426 70.3624 83.5936 70.4303C83.6105 70.4642 83.6445 70.4981 83.6615 70.549C83.7294 70.6507 83.7974 70.7525 83.8653 70.8542C83.8823 70.8882 83.9163 70.9221 83.9332 70.956C83.9842 71.0238 84.0352 71.0917 84.0861 71.1595C84.1201 71.1934 84.1371 71.2273 84.171 71.2782C84.222 71.346 84.2729 71.3969 84.3069 71.4648C84.3409 71.4987 84.3579 71.5326 84.3918 71.5665C84.4428 71.6343 84.5107 71.7022 84.5617 71.77C84.5787 71.787 84.5956 71.8209 84.6126 71.8379C84.6806 71.9227 84.7655 72.0075 84.8334 72.0922C84.8504 72.1092 84.8844 72.1431 84.9014 72.1601C84.9523 72.211 85.0033 72.2788 85.0712 72.3297C85.1052 72.3636 85.1222 72.3806 85.1561 72.4145C85.2071 72.4653 85.258 72.5162 85.309 72.5671C85.343 72.5841 85.36 72.618 85.3939 72.6349C85.4619 72.7028 85.5298 72.7537 85.5977 72.8045C85.5977 72.8045 85.6147 72.8215 85.6317 72.8384C85.7166 72.9063 85.7846 72.9572 85.8695 73.025C85.8865 73.042 85.9205 73.0589 85.9374 73.0759C85.9884 73.1098 86.0563 73.1607 86.1073 73.1946C86.1413 73.2116 86.1582 73.2285 86.1922 73.2455C86.2432 73.2794 86.3111 73.3133 86.3621 73.3472C86.379 73.3472 86.413 73.3811 86.43 73.3981C86.5149 73.449 86.5829 73.4829 86.6678 73.5338C87.8567 74.1273 89.0286 74.28 90.1836 74.1104C90.1327 73.9917 90.0817 73.873 90.0307 73.7712C90.0307 73.8051 90.0647 73.839 90.0817 73.873C90.0817 73.9069 90.1157 73.9408 90.1157 73.9747C90.1496 74.0765 90.2006 74.1613 90.2515 74.263C90.2515 74.2969 90.2855 74.3308 90.3025 74.3648C90.3535 74.4496 90.3874 74.5513 90.4384 74.6361C90.4384 74.67 90.4723 74.7039 90.4893 74.7379C90.5403 74.8227 90.5743 74.9075 90.6252 74.9922C90.6422 75.0262 90.6592 75.0601 90.6762 75.0771C90.7271 75.1618 90.7781 75.2466 90.829 75.3314C90.846 75.3654 90.863 75.3823 90.88 75.4162C90.9309 75.501 90.9819 75.5858 91.0328 75.6706C91.0328 75.7045 91.0668 75.7215 91.0838 75.7385C91.1348 75.8232 91.2027 75.908 91.2536 75.9759C91.2536 75.9928 91.2876 76.0098 91.3046 76.0268C91.3725 76.1116 91.4235 76.1963 91.4914 76.2811C91.4914 76.2811 91.4914 76.2811 91.4914 76.2981C91.7802 76.6712 92.1029 77.0104 92.4426 77.3326C92.4596 77.3496 92.4765 77.3665 92.4935 77.3835C92.5615 77.4344 92.6124 77.5022 92.6804 77.5531C92.7143 77.587 92.7483 77.6039 92.7823 77.6379C92.8332 77.6887 92.9012 77.7396 92.9691 77.7905C93.0031 77.8244 93.037 77.8583 93.088 77.8923C93.1389 77.9431 93.2069 77.9771 93.2578 78.0279C93.2918 78.0618 93.3428 78.0958 93.3767 78.1297C93.4277 78.1806 93.4956 78.2145 93.5466 78.2654C93.5975 78.2993 93.6315 78.3332 93.6825 78.3671C93.7334 78.401 93.8013 78.4519 93.8523 78.4858C93.9033 78.5197 93.9542 78.5537 94.0052 78.5876C94.0561 78.6215 94.1241 78.6554 94.175 78.7063C94.226 78.7402 94.2769 78.7741 94.3279 78.808C94.3788 78.842 94.4468 78.8759 94.4977 78.9098C94.5487 78.9437 94.5996 78.9776 94.6676 79.0116C94.7185 79.0455 94.7865 79.0794 94.8374 79.1133C94.8884 79.1472 94.9563 79.1811 95.0073 79.1981C95.0582 79.232 95.1262 79.2659 95.1771 79.2829C95.245 79.3168 95.296 79.3507 95.3639 79.3677C95.4149 79.4016 95.4828 79.4186 95.5338 79.4525C95.6017 79.4864 95.6697 79.5034 95.7206 79.5373C95.7716 79.5712 95.8395 79.5882 95.8905 79.6221C95.9584 79.656 96.0263 79.673 96.0943 79.7069C96.1452 79.7238 96.2132 79.7577 96.2641 79.7747C96.3321 79.8086 96.4 79.8256 96.4849 79.8595C96.5359 79.8765 96.6038 79.9104 96.6548 79.9273C96.7397 79.9613 96.8076 79.9782 96.8926 80.0121C96.9435 80.0291 96.9945 80.0461 97.0454 80.063C97.1303 80.0969 97.2323 80.1309 97.3172 80.1478C97.3681 80.1478 97.4021 80.1817 97.4531 80.1987C97.5889 80.2496 97.7248 80.2835 97.8607 80.3174C97.9966 80.3513 98.1494 80.4022 98.2853 80.4361C98.3363 80.4361 98.3702 80.4531 98.4212 80.47C98.5231 80.487 98.608 80.5209 98.7099 80.5379C98.7609 80.5379 98.8118 80.5548 98.8798 80.5718C98.9647 80.5718 99.0496 80.6057 99.1345 80.6227C99.1855 80.6227 99.2534 80.6396 99.3044 80.6566C99.3893 80.6566 99.4572 80.6735 99.5422 80.6905C99.6101 80.6905 99.6611 80.6905 99.729 80.7075C99.8139 80.7075 99.8819 80.7244 99.9668 80.7244C100.035 80.7244 100.086 80.7244 100.154 80.7244C100.222 80.7244 100.306 80.7244 100.374 80.7244C100.425 80.7244 100.493 80.7244 100.561 80.7244C100.629 80.7244 100.714 80.7244 100.782 80.7244C100.833 80.7244 100.901 80.7244 100.952 80.7244C101.02 80.7244 101.105 80.7244 101.173 80.7244C101.224 80.7244 101.292 80.7244 101.343 80.7244C101.41 80.7244 101.495 80.7244 101.563 80.7244C101.614 80.7244 101.682 80.7244 101.733 80.7244C101.818 80.7244 101.886 80.7075 101.971 80.6905C102.022 80.6905 102.073 80.6905 102.124 80.6735C102.209 80.6735 102.294 80.6396 102.379 80.6396C102.43 80.6396 102.464 80.6396 102.514 80.6227C102.633 80.6057 102.752 80.5718 102.871 80.5548C102.871 80.5548 102.888 80.5548 102.905 80.5548C103.024 80.5209 103.143 80.5039 103.262 80.47C103.313 80.47 103.347 80.4531 103.398 80.4361C103.483 80.4192 103.551 80.3852 103.635 80.3683C103.686 80.3683 103.737 80.3344 103.788 80.3174C103.856 80.3004 103.941 80.2665 104.009 80.2496C104.06 80.2326 104.111 80.2156 104.162 80.1817C104.23 80.1478 104.298 80.1309 104.366 80.0969C104.417 80.08 104.468 80.0461 104.536 80.0291C104.604 79.9952 104.672 79.9782 104.739 79.9443C104.79 79.9273 104.841 79.8934 104.909 79.8595C104.943 79.8595 104.977 79.8256 105.011 79.8086C106.319 81.6911 108.255 82.6069 110.31 83.0987C110.412 83.1326 110.531 83.1496 110.633 83.1665C110.667 83.1665 110.701 83.1665 110.752 83.1835C110.82 83.1835 110.905 83.2174 110.99 83.2174C111.041 83.2174 111.075 83.2174 111.126 83.2344C111.194 83.2344 111.279 83.2513 111.347 83.2683C111.397 83.2683 111.448 83.2683 111.482 83.2683C111.55 83.2683 111.635 83.2683 111.703 83.2852C111.754 83.2852 111.788 83.2852 111.839 83.2852C111.924 83.2852 112.009 83.2852 112.094 83.2852C112.128 83.2852 112.179 83.2852 112.213 83.2852C112.332 83.2852 112.468 83.2852 112.586 83.2852C112.62 83.2852 112.654 83.2852 112.671 83.2852C112.773 83.2852 112.875 83.2852 112.977 83.2852C113.028 83.2852 113.079 83.2852 113.13 83.2852C113.215 83.2852 113.283 83.2852 113.368 83.2852C113.419 83.2852 113.487 83.2852 113.538 83.2852C113.605 83.2852 113.69 83.2852 113.775 83.2852C113.843 83.2852 113.894 83.2852 113.962 83.2852C114.03 83.2852 114.115 83.2852 114.2 83.2683C114.268 83.2683 114.319 83.2683 114.387 83.2513C114.472 83.2513 114.54 83.2344 114.625 83.2174C114.693 83.2174 114.743 83.2174 114.811 83.2004C114.947 83.1835 115.083 83.1665 115.219 83.1326C115.287 83.1326 115.372 83.0987 115.44 83.0987C115.508 83.0987 115.576 83.0817 115.661 83.0648C115.746 83.0648 115.814 83.0308 115.898 83.0139C115.966 83.0139 116.034 82.98 116.102 82.98C116.187 82.963 116.272 82.9461 116.357 82.9291C116.425 82.9291 116.493 82.8952 116.544 82.8782C116.629 82.8613 116.714 82.8273 116.799 82.8104C116.85 82.8104 116.918 82.7765 116.968 82.7595C117.053 82.7426 117.155 82.7086 117.24 82.6917C117.274 82.6917 117.325 82.6747 117.359 82.6578C117.716 82.556 118.072 82.4373 118.429 82.3186C118.463 82.3186 118.497 82.2847 118.548 82.2847C118.65 82.2507 118.769 82.1999 118.871 82.1659C118.922 82.1659 118.956 82.132 119.007 82.1151C119.109 82.0811 119.227 82.0303 119.329 81.9794C119.363 81.9794 119.414 81.9455 119.448 81.9285C119.567 81.8776 119.686 81.8268 119.788 81.7759C119.822 81.7759 119.839 81.7589 119.873 81.742C120.247 81.5724 120.62 81.4028 120.994 81.2162C121.911 81.6911 123.083 82.0642 124.51 82.3186C124.629 82.3355 124.73 82.3525 124.849 82.3695C124.883 82.3695 124.917 82.3695 124.951 82.3695C125.036 82.3695 125.121 82.3695 125.189 82.3864C125.223 82.3864 125.274 82.3864 125.308 82.3864C125.393 82.3864 125.478 82.3864 125.563 82.3864C125.597 82.3864 125.631 82.3864 125.665 82.3864C125.784 82.3864 125.902 82.3864 126.021 82.3864C126.038 82.3864 126.072 82.3864 126.089 82.3864C126.191 82.3864 126.293 82.3864 126.395 82.3864C126.429 82.3864 126.48 82.3864 126.514 82.3864C126.599 82.3864 126.684 82.3864 126.769 82.3695C126.82 82.3695 126.854 82.3695 126.905 82.3695C127.006 82.3695 127.091 82.3525 127.193 82.3355C127.227 82.3355 127.261 82.3355 127.295 82.3355C127.414 82.3186 127.55 82.3016 127.669 82.2677C127.703 82.2677 127.737 82.2677 127.788 82.2507C127.873 82.2338 127.975 82.2168 128.059 82.1999C128.11 82.1999 128.161 82.1829 128.212 82.1659C128.297 82.149 128.382 82.132 128.467 82.0981C128.518 82.0981 128.569 82.0811 128.62 82.0642C128.722 82.0303 128.824 82.0133 128.926 81.9794C128.96 81.9794 128.994 81.9624 129.028 81.9455C129.163 81.9116 129.282 81.8607 129.418 81.8268C129.469 81.8098 129.52 81.7928 129.571 81.7759C129.656 81.742 129.741 81.725 129.826 81.6911C129.877 81.6741 129.945 81.6402 129.996 81.6232C130.081 81.5893 130.149 81.5554 130.234 81.5215C130.284 81.5045 130.352 81.4706 130.403 81.4537C130.505 81.4028 130.607 81.3689 130.726 81.318C130.794 81.2841 130.879 81.2502 130.947 81.2162C131.032 81.1823 131.117 81.1314 131.202 81.0975C131.27 81.0636 131.338 81.0297 131.405 80.9958C131.473 80.9618 131.541 80.9279 131.626 80.894C131.694 80.8601 131.762 80.8262 131.83 80.7923C131.898 80.7583 131.966 80.7244 132.034 80.6905C132.102 80.6566 132.17 80.6227 132.238 80.5718C132.323 80.5209 132.425 80.47 132.509 80.4192C132.594 80.3683 132.662 80.3344 132.747 80.2835C132.866 80.2835 132.985 80.2835 133.104 80.2665C133.138 80.2665 133.172 80.2665 133.206 80.2665C133.291 80.2665 133.376 80.2665 133.461 80.2496C133.495 80.2496 133.529 80.2496 133.579 80.2496C133.681 80.2496 133.783 80.2326 133.885 80.2157C133.902 80.2157 133.919 80.2157 133.953 80.2157C134.072 80.1987 134.191 80.1817 134.327 80.1478C134.361 80.1478 134.395 80.1478 134.429 80.1309C134.514 80.1139 134.616 80.0969 134.7 80.08C134.734 80.08 134.785 80.063 134.819 80.0461C134.921 80.0291 135.006 79.9952 135.108 79.9782C135.142 79.9782 135.176 79.9782 135.193 79.9613C135.312 79.9273 135.448 79.8934 135.567 79.8595C135.601 79.8595 135.618 79.8425 135.652 79.8425C135.754 79.8086 135.855 79.7917 135.94 79.7578C135.974 79.7578 136.025 79.7238 136.059 79.7238C136.144 79.6899 136.246 79.656 136.331 79.639C136.365 79.639 136.399 79.6221 136.45 79.6051C136.569 79.5542 136.705 79.5203 136.824 79.4694C136.841 79.4694 136.858 79.4694 136.875 79.4525C136.993 79.4016 137.095 79.3677 137.214 79.3168C137.248 79.3168 137.299 79.2829 137.333 79.2659C137.418 79.232 137.52 79.1811 137.605 79.1472C137.639 79.1303 137.69 79.1133 137.724 79.0964C137.843 79.0455 137.962 78.9946 138.08 78.9268C138.08 78.9268 138.097 78.9268 138.114 78.9268C138.25 78.8589 138.369 78.808 138.505 78.7402C138.539 78.7233 138.59 78.7063 138.624 78.6724C138.709 78.6215 138.811 78.5706 138.896 78.5197C138.947 78.5028 138.981 78.4689 139.032 78.4519C139.133 78.401 139.235 78.3332 139.337 78.2823C139.371 78.2823 139.388 78.2484 139.422 78.2314C139.558 78.1636 139.677 78.0788 139.813 77.994C139.847 77.9771 139.881 77.9431 139.915 77.9262C140.017 77.8753 140.102 77.8075 140.204 77.7396C140.254 77.7057 140.288 77.6887 140.339 77.6548C140.441 77.587 140.526 77.5361 140.628 77.4683C140.662 77.4513 140.696 77.4174 140.73 77.4004C140.866 77.3156 140.985 77.2309 141.121 77.1291C141.155 77.1121 141.189 77.0782 141.206 77.0613C141.308 76.9934 141.409 76.9086 141.511 76.8408C141.562 76.8069 141.596 76.773 141.647 76.739C141.732 76.6712 141.834 76.6034 141.919 76.5355C141.953 76.5016 142.004 76.4677 142.038 76.4338C142.157 76.332 142.293 76.2303 142.412 76.1285C142.412 76.1285 142.445 76.0946 142.462 76.0946C142.581 76.0098 142.683 75.908 142.802 75.8063C142.853 75.7724 142.887 75.7384 142.938 75.7045C143.023 75.6367 143.108 75.5519 143.21 75.4671C143.261 75.4332 143.295 75.3993 143.346 75.3484C143.448 75.2466 143.549 75.1618 143.668 75.0601C143.685 75.0431 143.719 75.0262 143.736 74.9922C143.855 74.8735 143.991 74.7548 144.11 74.6361C144.144 74.6022 144.195 74.5513 144.229 74.5174C144.314 74.4326 144.399 74.3478 144.484 74.263C144.535 74.2121 144.569 74.1782 144.62 74.1273C144.704 74.0425 144.806 73.9408 144.891 73.839C144.925 73.8051 144.959 73.7712 144.993 73.7373C145.112 73.6186 145.231 73.4829 145.35 73.3472C145.384 73.3133 145.418 73.2624 145.452 73.2285C145.537 73.1268 145.622 73.042 145.707 72.9402C145.758 72.8893 145.791 72.8385 145.842 72.7876C145.927 72.6858 146.012 72.601 146.097 72.4993C146.131 72.4484 146.165 72.4145 146.216 72.3636C146.335 72.2279 146.454 72.0922 146.573 71.9396C146.607 71.9057 146.624 71.8718 146.658 71.8379C146.743 71.7191 146.845 71.6174 146.929 71.4987C146.963 71.4478 147.014 71.3969 147.048 71.3461C147.133 71.2443 147.201 71.1425 147.286 71.0408C147.32 70.9899 147.371 70.939 147.405 70.8882C147.507 70.7525 147.609 70.6168 147.728 70.4642C147.745 70.4472 147.762 70.4133 147.779 70.3963C147.881 70.2607 147.983 70.108 148.084 69.9724C148.118 69.9215 148.169 69.8706 148.203 69.8028C148.271 69.701 148.356 69.5823 148.424 69.4805C148.458 69.4297 148.509 69.3618 148.543 69.311C148.628 69.1922 148.713 69.0566 148.798 68.9209C148.815 68.887 148.849 68.8361 148.866 68.8022C148.968 68.6326 149.07 68.48 149.171 68.3104C149.205 68.2595 149.239 68.2086 149.273 68.1408C149.341 68.0221 149.426 67.9034 149.494 67.7846C149.528 67.7168 149.562 67.6659 149.613 67.5981C149.681 67.4794 149.766 67.3437 149.834 67.225C149.868 67.1741 149.902 67.1232 149.919 67.0724C150.021 66.9028 150.123 66.7162 150.207 66.5466C150.241 66.4958 150.258 66.4449 150.292 66.394C150.36 66.2583 150.428 66.1227 150.513 66.0039C150.547 65.9361 150.581 65.8683 150.615 65.8004C150.683 65.6817 150.751 65.546 150.819 65.4104C150.853 65.3425 150.887 65.2917 150.921 65.2238C151.006 65.0373 151.108 64.8507 151.193 64.6642C151.21 64.6302 151.227 64.5794 151.244 64.5455C151.312 64.3928 151.396 64.2402 151.464 64.0876C151.481 64.0367 151.515 63.9858 151.532 63.9349C151.532 63.901 151.566 63.8671 151.583 63.8332C151.634 63.7145 151.685 63.5958 151.736 63.477C151.77 63.4092 151.804 63.3414 151.821 63.2735C151.821 63.2396 151.855 63.2057 151.872 63.1548C151.923 63.0191 151.991 62.9004 152.042 62.7648C152.042 62.7308 152.059 62.7139 152.076 62.68C152.076 62.68 152.127 62.5782 152.144 62.5273C152.178 62.4425 152.212 62.3577 152.246 62.2729C152.314 62.1203 152.365 61.9507 152.433 61.7981C152.466 61.7133 152.5 61.6115 152.534 61.5267C152.602 61.3572 152.653 61.2045 152.721 61.0349C152.755 60.9501 152.789 60.8653 152.823 60.7636C152.891 60.594 152.942 60.4244 153.01 60.2379C153.044 60.1531 153.061 60.0683 153.095 59.9835C153.163 59.78 153.231 59.5765 153.282 59.3899C153.299 59.3221 153.316 59.2712 153.333 59.2034C153.418 58.932 153.503 58.6776 153.57 58.4063C153.57 58.4063 153.57 58.4063 153.57 58.3893C153.638 58.1349 153.723 57.8805 153.791 57.6092C153.808 57.5244 153.842 57.4396 153.859 57.3548C153.91 57.1683 153.961 56.9817 154.012 56.7952C154.029 56.6934 154.063 56.5916 154.08 56.4899C154.114 56.3203 154.165 56.1507 154.199 55.9642C154.216 55.8455 154.25 55.7437 154.267 55.625C154.301 55.4554 154.335 55.2858 154.369 55.1162C154.386 54.9975 154.42 54.8788 154.437 54.777C154.471 54.6074 154.505 54.4378 154.539 54.2683C154.556 54.1495 154.59 54.0308 154.607 53.9121C154.641 53.7425 154.674 53.556 154.691 53.3694C154.708 53.2507 154.725 53.149 154.742 53.0302C154.776 52.8267 154.81 52.6402 154.827 52.4367C154.827 52.3349 154.861 52.2501 154.878 52.1484C154.912 51.8601 154.963 51.5548 154.997 51.2495C156.865 35.8337 147.949 23.4706 138.59 24.1829L138.658 23.9454Z" fill="url(#paint38_radial_13_7952)"/>
<path d="M144.942 57.9993C142.225 60.594 137.554 62.5782 131.796 63.5449L131.966 65.7326C131.966 65.9022 131.864 66.0548 131.711 66.0887L126.072 66.8858C125.919 66.9028 125.784 66.7841 125.767 66.6145L125.58 64.1554C124 64.2063 122.37 64.1893 120.722 64.0876L120.382 66.6653C120.365 66.8349 120.213 66.9706 120.06 66.9537L114.455 66.3262C114.302 66.3092 114.2 66.1566 114.217 65.987L114.557 63.3753C113.843 63.2566 113.113 63.1039 112.383 62.9513C111.465 62.7478 110.548 62.5273 109.665 62.2899L108.85 64.6472C108.799 64.8168 108.629 64.9016 108.476 64.8507L103.194 62.8665C103.041 62.8156 102.973 62.6291 103.024 62.4765L103.737 60.4075C101.444 59.5256 99.2874 58.542 97.3172 57.4396L96.451 58.9998C96.366 59.1525 96.1962 59.2034 96.0603 59.1186L91.2706 56.0151C91.1348 55.9303 91.1008 55.7437 91.1857 55.5911L92.0689 54.0139C88.2643 51.063 85.6147 47.7221 84.5617 44.3642C84.4598 44.0589 84.0521 44.1437 84.0352 44.4829C83.7634 50.9104 87.517 59.3221 94.4977 65.563L95.1601 64.3759C95.262 64.1893 95.4828 64.1215 95.6527 64.2232L100.29 67.225C100.476 67.3437 100.527 67.6151 100.408 67.8186L99.5592 69.3279C101.75 70.6507 104.128 71.77 106.727 72.601L107.202 70.4303C107.253 70.1928 107.457 70.0402 107.678 70.0911L112.977 71.2443C113.181 71.2952 113.317 71.5156 113.266 71.7531L112.79 73.9408C114.896 74.1782 117.002 74.1952 119.058 74.0086L118.82 71.9566C118.786 71.7192 118.939 71.4987 119.159 71.4648L124.561 70.4642C124.781 70.4303 124.968 70.5829 125.002 70.8203L125.24 72.8893C135.193 70.142 143.244 63.4601 145.537 58.542C145.724 58.1349 145.282 57.7449 144.959 58.0501L144.942 57.9993Z" fill="url(#paint39_radial_13_7952)"/>
<path d="M106.489 44.4151C106.965 44.5507 106.795 45.4156 106.336 45.6531C104.077 46.8233 100.697 46.4162 97.3172 45.687C91.7292 44.4829 87.9077 40.277 88.7739 36.3256C89.5042 32.9507 91.8821 30.9156 96.434 31.1022C96.5359 31.1022 96.6378 31.1361 96.7227 31.2039C98.693 32.4589 99.8819 36.139 101.003 39.6156C101.631 41.5829 103.211 43.4484 106.472 44.4151H106.489Z" fill="url(#paint40_radial_13_7952)"/>
<path d="M99.763 44.839C94.175 43.6349 90.3535 39.4291 91.2197 35.4776C91.6273 33.5952 92.5615 32.1197 94.0901 31.2209C91.0499 31.7127 89.3684 33.5782 88.7739 36.3086C87.9077 40.277 91.7292 44.4659 97.3172 45.67C100.884 46.4502 104.451 46.8572 106.693 45.4326C104.672 45.7209 102.209 45.3648 99.763 44.8221V44.839Z" fill="url(#paint41_linear_13_7952)"/>
<path d="M131.151 46.1449C133.63 43.4484 136.212 40.5823 138.539 40.2601C138.641 40.2601 138.743 40.2601 138.845 40.294C143.074 42.0069 144.382 44.839 143.651 48.2139C142.785 52.1823 137.571 54.404 131.983 53.1999C128.603 52.4706 125.359 51.4361 123.779 49.4349C123.457 49.0279 123.66 48.163 124.153 48.2308C127.516 48.7057 129.741 47.6373 131.134 46.1279L131.151 46.1449Z" fill="url(#paint42_radial_13_7952)"/>
<path d="M130.115 51.4192C135.703 52.6232 140.917 50.4016 141.783 46.4332C142.191 44.5507 141.97 42.8209 140.934 41.3794C143.499 43.0922 144.246 45.4835 143.651 48.2139C142.785 52.1823 137.571 54.404 131.983 53.1999C128.416 52.4197 125.002 51.3344 123.542 49.0958C125.257 50.1981 127.652 50.8765 130.098 51.4192H130.115Z" fill="url(#paint43_linear_13_7952)"/>
<path d="M100.425 67.7508C102.481 68.9549 104.706 69.9724 107.117 70.7525L106.727 72.5841C104.145 71.7531 101.75 70.6338 99.5592 69.311L100.425 67.7508Z" fill="url(#paint44_linear_13_7952)"/>
<path d="M113.181 72.0753L112.79 73.9069C114.896 74.1443 117.002 74.1613 119.058 73.9747L118.854 72.194C116.985 72.3297 115.1 72.2958 113.198 72.0753H113.181Z" fill="url(#paint45_linear_13_7952)"/>
<path d="M145.231 57.8975C142.293 62.646 134.751 68.48 125.614 71.0069L125.376 68.9039C125.359 68.6835 125.172 68.5308 124.968 68.5648L119.516 69.5823C119.312 69.6162 119.177 69.8367 119.193 70.0571L119.346 71.38L124.934 70.3455L125.206 72.8384C135.159 70.0911 143.21 63.4092 145.503 58.4911C145.639 58.2028 145.452 57.9314 145.231 57.8975Z" fill="url(#paint46_linear_13_7952)"/>
<path d="M100.697 65.3764L96.0433 62.3747C95.8735 62.2729 95.6527 62.3408 95.5508 62.5273L94.8884 63.7144C88.4682 57.9653 84.7825 50.3846 84.4428 44.1946C84.2899 44.0928 84.0352 44.1946 84.0352 44.4659C83.7634 50.8934 87.517 59.3051 94.4977 65.546L95.1431 64.3928C95.262 64.1893 95.4998 64.1045 95.6867 64.2232L100.171 67.1232L100.833 65.9361C100.935 65.7326 100.884 65.4951 100.714 65.3764H100.697Z" fill="url(#paint47_linear_13_7952)"/>
<path d="M113.385 69.3958L108.052 68.2426C107.848 68.1917 107.661 68.3444 107.61 68.5648C107.61 68.5648 107.27 70.142 107.202 70.4303C107.321 70.0064 107.678 70.0911 107.678 70.0911L112.977 71.2444C112.977 71.2444 113.334 71.3122 113.266 71.7531C113.368 71.2783 113.673 69.8876 113.673 69.8876C113.724 69.6672 113.606 69.4467 113.402 69.4128L113.385 69.3958Z" fill="url(#paint48_linear_13_7952)"/>
<path d="M118.633 58.0162L108.561 55.8285L115.287 47.6882L118.633 58.0162Z" fill="url(#paint49_radial_13_7952)"/>
<path d="M109.971 54.0987L108.561 55.8285L118.633 58.0162L117.937 55.8285L109.971 54.0987Z" fill="url(#paint50_linear_13_7952)"/>
<path d="M109.156 64.5115L109.971 62.3577C109.869 62.3238 109.75 62.3069 109.648 62.2729L108.833 64.6303C108.833 64.6303 108.782 64.7151 108.765 64.749L109.156 64.4946V64.5115Z" fill="url(#paint51_linear_13_7952)"/>
<path d="M113.911 65.7666L114.251 66.1905C114.251 66.1905 114.183 66.0549 114.2 65.9701L114.54 63.3584C114.455 63.3584 114.353 63.3245 114.268 63.3075L113.894 65.7835L113.911 65.7666Z" fill="url(#paint52_linear_13_7952)"/>
<path d="M125.75 66.6145L125.563 64.1554C125.274 64.1554 124.968 64.1554 124.68 64.1724L124.832 66.1905L125.851 66.818C125.851 66.818 125.767 66.6993 125.75 66.6145Z" fill="url(#paint53_linear_13_7952)"/>
<path d="M98.0815 57.8297C97.8267 57.694 97.572 57.5583 97.3172 57.4227L96.451 58.9829C96.4 59.0846 96.3151 59.1355 96.2132 59.1355C96.7567 59.2373 97.4531 58.9659 97.4531 58.9659L98.0815 57.8297Z" fill="url(#paint54_linear_13_7952)"/>
<path d="M100.459 67.5642L100.867 65.6817C100.867 65.6817 100.867 65.4952 100.697 65.3765C100.527 65.2577 95.9584 62.3238 95.9584 62.3238C95.9584 62.3238 95.7376 62.3238 95.6866 62.3408C95.6357 62.3747 95.1771 64.2911 95.1771 64.2911C95.1771 64.2911 95.4149 64.0876 95.6357 64.2063C95.8565 64.325 100.188 67.1402 100.188 67.1402C100.188 67.1402 100.459 67.3098 100.459 67.5642Z" fill="url(#paint55_linear_13_7952)"/>
<path d="M94.4977 65.5461L95.2111 64.2911L95.7206 62.3408C95.7206 62.3408 95.6697 62.3748 95.5678 62.5274C95.4828 62.68 94.9054 63.7145 94.9054 63.7145L94.5147 65.5461H94.4977Z" fill="#7C0305"/>
<path d="M118.82 71.77L119.244 69.8366C119.244 69.8366 119.295 69.6501 119.652 69.5653C120.009 69.4975 124.985 68.5817 124.985 68.5817C124.985 68.5817 125.257 68.5817 125.359 68.7682C125.461 68.9548 125.002 70.7863 125.002 70.7863C125.002 70.7863 124.917 70.4132 124.629 70.4302C124.34 70.4641 119.143 71.4308 119.143 71.4308C119.143 71.4308 118.803 71.5325 118.803 71.7869L118.82 71.77Z" fill="url(#paint56_linear_13_7952)"/>
<path d="M125.223 72.8385L124.985 70.7695L125.359 68.8022L125.614 71.0069C125.614 71.0069 125.206 72.8724 125.223 72.8385Z" fill="#610102"/>
<g style="mix-blend-mode:multiply">
<g style="mix-blend-mode:multiply">
<path d="M94.5147 35.4437C94.3619 31.6449 93.3598 28.27 91.5254 25.3192C91.3895 25.0987 88.638 21.5203 86.5659 18.756C86.4979 18.8069 86.447 18.8408 86.379 18.8747C86.379 18.8747 86.3451 18.8917 86.3281 18.9086C85.7676 19.3157 85.2241 19.7396 84.6806 20.1975C84.6466 20.2315 84.6126 20.2654 84.5617 20.2993C84.4088 24.2677 85.7676 30.2034 84.6296 32.4929C84.4768 33.1203 84.3918 33.7648 84.3579 34.3923C84.3579 34.3753 84.3579 34.3414 84.3579 34.3244C84.3918 33.7139 83.9502 33.9344 83.6615 34.6636C82.6424 37.1736 77.4791 40.9724 74.0312 44.5168C74.0312 44.8391 74.0312 45.1613 74.0312 45.4665C74.0312 45.5344 74.0312 45.6022 74.0312 45.6701C74.0312 45.687 74.0312 45.704 74.0312 45.7209C74.0312 45.7549 74.0312 45.7888 74.0312 45.8227C74.0312 45.9075 74.0312 45.9923 74.0312 46.0771C74.0312 46.128 74.0312 46.1619 74.0312 46.2127C74.0312 46.2467 74.0312 46.2636 74.0312 46.2975C74.0312 46.4671 74.0312 46.6198 74.0482 46.7894V46.8233C74.0482 46.8572 74.0482 46.8911 74.0482 46.925C74.0821 47.5695 74.1331 48.197 74.184 48.8075C74.184 48.8414 74.184 48.8753 74.184 48.9092C74.201 49.0619 74.218 49.2315 74.235 49.3841C74.235 49.418 74.235 49.435 74.235 49.4689C74.235 49.5028 74.235 49.5537 74.235 49.5876C74.235 49.6554 74.252 49.7233 74.269 49.7911C74.269 49.825 74.269 49.8589 74.269 49.9098C74.269 49.9437 74.269 49.9607 74.269 49.9946C74.2859 50.1473 74.3199 50.2999 74.3369 50.4525C74.3369 50.4864 74.3369 50.5373 74.3539 50.5712C74.4558 51.1648 74.5577 51.7414 74.6766 52.301C74.6766 52.318 74.6766 52.3519 74.6766 52.3689C74.6766 52.4028 74.6766 52.4198 74.6936 52.4537C74.7275 52.5894 74.7615 52.725 74.7785 52.8607C74.7785 52.8946 74.7785 52.9285 74.7955 52.9625C74.7955 53.0133 74.8125 53.0472 74.8295 53.0981C74.8295 53.166 74.8634 53.2338 74.8804 53.2847C74.8804 53.3186 74.8804 53.3356 74.8974 53.3695C74.8974 53.4034 74.8974 53.4373 74.9144 53.4543C74.9144 53.5051 74.9314 53.5391 74.9483 53.573C75.0842 54.0817 75.2201 54.5736 75.373 55.0654C75.373 55.0993 75.39 55.1502 75.4069 55.1841C75.4069 55.218 75.4239 55.235 75.4239 55.2689C75.4239 55.2859 75.4239 55.3028 75.4409 55.3198C75.4579 55.3706 75.4749 55.4385 75.4919 55.4894C75.4919 55.5402 75.5258 55.5742 75.5428 55.625C75.5428 55.6589 75.5768 55.7098 75.5768 55.7607C75.6108 55.8794 75.6447 55.9812 75.6957 56.0999C75.6957 56.1508 75.7296 56.1847 75.7466 56.2356C75.7466 56.2864 75.7806 56.3204 75.7976 56.3712C75.8146 56.4221 75.8316 56.473 75.8485 56.5239C75.8485 56.5239 75.8485 56.5578 75.8655 56.5747C75.8655 56.6087 75.8995 56.6426 75.8995 56.6935C75.9165 56.7613 75.9504 56.8291 75.9844 56.897C76.0863 57.1683 76.1882 57.4227 76.2901 57.694C76.2901 57.728 76.3241 57.7788 76.3411 57.8128C76.3411 57.8467 76.3581 57.8636 76.3751 57.8975C76.409 57.9993 76.46 58.1011 76.494 58.2028C76.5109 58.2537 76.5449 58.3046 76.5619 58.3554C76.5619 58.3724 76.5789 58.3894 76.5959 58.4233C76.5959 58.4572 76.6298 58.5081 76.6468 58.542C76.6468 58.5759 76.6808 58.6098 76.6978 58.6437C76.7148 58.6946 76.7487 58.7455 76.7657 58.8133C76.7997 58.8981 76.8506 58.9999 76.8846 59.0847C76.9016 59.1356 76.9356 59.1864 76.9525 59.2543C76.9695 59.2882 76.9865 59.3391 77.0035 59.373C77.0035 59.4069 77.0375 59.4408 77.0545 59.4747C77.0545 59.4747 77.0545 59.4917 77.0545 59.5087C77.0714 59.5595 77.1054 59.6104 77.1224 59.6613C77.2073 59.8478 77.3092 60.0344 77.3941 60.2209C77.3941 60.2549 77.4281 60.2718 77.4451 60.3057C77.4451 60.3396 77.4791 60.3566 77.4791 60.3905C77.4961 60.4414 77.53 60.4923 77.547 60.5262C77.581 60.594 77.6149 60.6449 77.6489 60.7127C77.6829 60.7806 77.7338 60.8654 77.7678 60.9332C77.8018 61.0011 77.8357 61.0519 77.8697 61.1198C77.8697 61.1367 77.8867 61.1537 77.9037 61.1876C77.9037 61.2215 77.9377 61.2385 77.9546 61.2724C77.9546 61.2894 77.9716 61.3233 77.9886 61.3402C78.0226 61.4081 78.0565 61.4759 78.0905 61.5268C78.1245 61.5946 78.1585 61.6625 78.2094 61.7303C78.2434 61.7981 78.2943 61.866 78.3283 61.9338C78.3453 61.9677 78.3623 62.0016 78.3962 62.0356C78.3962 62.0525 78.4302 62.0864 78.4302 62.1034C78.4812 62.1882 78.5321 62.273 78.5831 62.3578C78.634 62.4426 78.685 62.5104 78.7189 62.5952C78.7699 62.68 78.8209 62.7478 78.8718 62.8326C78.8718 62.8326 78.8718 62.8326 78.8718 62.8496C78.8718 62.8666 78.8888 62.8835 78.9058 62.9005C78.9228 62.9344 78.9398 62.9513 78.9567 62.9853C78.9907 63.0361 79.0247 63.104 79.0586 63.1549C83.5086 58.4742 90.4214 50.2151 91.8821 47.1455C93.6825 43.3467 94.4977 39.4291 94.3279 35.3929L94.5147 35.4437Z" fill="#A7A7A7"/>
</g>
<g style="mix-blend-mode:multiply">
<path d="M96.2811 68.4969L89.5212 68.9039C90.846 70.3963 92.4596 74.9922 94.141 78.5028C94.158 78.5028 94.175 78.5197 94.192 78.5367C94.2429 78.5706 94.2939 78.6045 94.3449 78.6385C94.3958 78.6724 94.4637 78.7063 94.5147 78.7402C94.5657 78.7741 94.6166 78.808 94.6845 78.842C94.6845 78.842 94.7185 78.842 94.7355 78.8589C94.7695 78.8589 94.8034 78.8928 94.8204 78.9098C94.8204 78.9098 94.8544 78.9098 94.8544 78.9268C94.9054 78.9607 94.9733 78.9946 95.0242 79.0116C95.0752 79.0455 95.1431 79.0794 95.1941 79.0963C95.262 79.1303 95.313 79.1642 95.3809 79.1811C95.3979 79.1811 95.4319 79.1981 95.4489 79.2151C95.4658 79.2151 95.4998 79.232 95.5338 79.249C95.5338 79.249 95.5508 79.249 95.5678 79.249C95.6357 79.2829 95.7036 79.2999 95.7546 79.3338C95.8055 79.3677 95.8735 79.3846 95.9244 79.4186C95.9924 79.4525 96.0603 79.4694 96.1282 79.5034C96.1622 79.5034 96.1792 79.5203 96.2132 79.5373C96.2471 79.5373 96.2641 79.5542 96.2981 79.5712C96.366 79.6051 96.434 79.6221 96.5189 79.656C96.5699 79.673 96.6378 79.7069 96.6887 79.7238C96.7227 79.7238 96.7397 79.7408 96.7737 79.7578L96.2471 68.446L96.2811 68.4969Z" fill="#A7A7A7"/>
</g>
</g>
<path d="M70.5153 70.0741L65.8785 69.1583L89.6401 67.7168L94.2939 68.6326L70.5153 70.0741Z" fill="url(#paint57_linear_13_7952)"/>
<path d="M75.322 32.0688C74.4218 31.1191 73.3857 30.5425 72.1968 30.3051L67.56 29.3893C68.7319 29.6267 69.785 30.2033 70.6852 31.1531C71.976 32.5098 72.6724 34.2057 72.7573 36.2238C72.8422 38.0893 72.2987 40.1074 71.1438 42.2613C70.838 42.8379 70.4134 43.4823 69.8869 44.2115C68.4262 46.2127 66.1163 48.7735 62.9571 51.911C58.6091 56.2186 55.1442 60.1531 52.5455 63.6975C50.932 65.8852 49.6751 67.9373 48.724 69.8367C46.2782 74.8057 44.9024 80.0291 44.5967 85.5069L49.2335 86.4227C49.5223 80.9449 50.898 75.7045 53.3608 70.7525C54.295 68.8531 55.5688 66.818 57.1824 64.6133C59.781 61.0689 63.2459 57.1344 67.594 52.8268C70.7531 49.6893 73.0461 47.1115 74.5237 45.1273C75.0502 44.3981 75.4749 43.7536 75.7806 43.177C76.9355 41.0232 77.4791 39.0051 77.3941 37.1396C77.3092 35.1215 76.6298 33.4425 75.322 32.0688Z" fill="url(#paint58_linear_13_7952)"/>
<path d="M74.1331 17.1279C72.01 16.704 69.5302 16.5344 66.7108 16.6192C66.1503 16.6192 65.5898 16.6531 64.9953 16.704C60.8341 16.9584 57.4201 17.6706 54.7535 18.8578C54.1421 19.1291 53.5646 19.4344 53.0211 19.7566C52.3077 20.1975 51.6453 20.6724 51.0169 21.1812C49.9299 22.063 48.9787 23.0806 48.1635 24.1999C47.569 25.0139 47.0255 25.9128 46.5669 26.8455C45.0893 29.8473 44.1721 33.9683 43.7814 39.1747L48.4183 40.0905C48.7919 34.8671 49.7261 30.763 51.2037 27.7613C51.6623 26.8116 52.2058 25.9297 52.8003 25.1157C53.6326 23.9964 54.5837 22.9788 55.6537 22.097C56.2822 21.5882 56.9446 21.1133 57.6579 20.6724C58.1845 20.3502 58.7619 20.0449 59.3904 19.7736C62.04 18.5864 65.4539 17.8741 69.6321 17.6198C70.2096 17.5858 70.7871 17.5519 71.3476 17.535C74.184 17.4502 76.6638 17.6198 78.7699 18.0437L74.1331 17.1279Z" fill="url(#paint59_linear_13_7952)"/>
<path d="M69.6321 17.6027C74.9823 17.2805 79.1945 17.7723 82.2348 19.0612C85.275 20.3501 87.7038 22.487 89.5382 25.4378C91.3725 28.3887 92.3746 31.7636 92.5275 35.5624C92.6973 39.5987 91.8821 43.5162 90.0817 47.315C88.2813 51.1139 84.8844 55.3536 79.9079 60.0683C76.9525 62.8156 74.9823 64.732 73.9802 65.8174C72.9951 66.9028 71.8231 68.3273 70.4983 70.0572L94.2769 68.6156L94.9053 83.6244L49.2165 86.3888C49.5053 80.911 50.881 75.6706 53.3438 70.7186C55.8066 65.7496 60.5453 59.78 67.56 52.7928C71.8571 48.5191 74.5747 45.2969 75.7466 43.1431C76.9016 40.9893 77.4451 38.9712 77.3602 37.1057C77.2752 35.0875 76.5958 33.4086 75.288 32.0349C73.9972 30.6782 72.4176 30.0507 70.5493 30.1694C68.613 30.2881 67.0504 31.1191 65.8785 32.6624C64.7066 34.2226 63.9932 36.8682 63.7214 40.6332L48.4013 40.0566C48.7749 34.8332 49.7091 30.7291 51.1867 27.7273C52.6644 24.7255 54.8215 22.3513 57.6579 20.6215C60.4944 18.8916 64.4858 17.8741 69.6151 17.5688L69.6321 17.6027Z" fill="url(#paint60_linear_13_7952)"/>
<path d="M172.855 71.4363H230.455V95H172.855V71.4363Z" fill="#050517"/>
<path d="M188.96 82.4424V83.2173C188.96 84.4601 188.791 85.5757 188.454 86.564C188.118 87.5522 187.642 88.3945 187.028 89.0908C186.414 89.7796 185.681 90.3075 184.827 90.6743C183.981 91.0412 183.041 91.2246 182.008 91.2246C180.982 91.2246 180.043 91.0412 179.189 90.6743C178.343 90.3075 177.61 89.7796 176.988 89.0908C176.367 88.3945 175.884 87.5522 175.539 86.564C175.203 85.5757 175.034 84.4601 175.034 83.2173V82.4424C175.034 81.1921 175.203 80.0765 175.539 79.0957C175.876 78.1074 176.352 77.2651 176.966 76.5688C177.587 75.8726 178.321 75.341 179.167 74.9741C180.02 74.6073 180.96 74.4238 181.986 74.4238C183.019 74.4238 183.959 74.6073 184.805 74.9741C185.658 75.341 186.392 75.8726 187.006 76.5688C187.627 77.2651 188.106 78.1074 188.443 79.0957C188.788 80.0765 188.96 81.1921 188.96 82.4424ZM185.557 83.2173V82.4199C185.557 81.5514 185.478 80.7878 185.321 80.1289C185.164 79.4701 184.932 78.916 184.625 78.4668C184.318 78.0176 183.944 77.6807 183.502 77.4561C183.06 77.224 182.555 77.1079 181.986 77.1079C181.417 77.1079 180.911 77.224 180.47 77.4561C180.035 77.6807 179.665 78.0176 179.358 78.4668C179.058 78.916 178.83 79.4701 178.673 80.1289C178.516 80.7878 178.437 81.5514 178.437 82.4199V83.2173C178.437 84.0783 178.516 84.842 178.673 85.5083C178.83 86.1672 179.062 86.7249 179.369 87.1816C179.676 87.6309 180.05 87.9715 180.492 88.2036C180.934 88.4357 181.439 88.5518 182.008 88.5518C182.577 88.5518 183.083 88.4357 183.524 88.2036C183.966 87.9715 184.337 87.6309 184.636 87.1816C184.936 86.7249 185.164 86.1672 185.321 85.5083C185.478 84.842 185.557 84.0783 185.557 83.2173ZM196.135 74.6484V91H192.766V74.6484H196.135ZM202.648 81.6338V84.2617H195.214V81.6338H202.648ZM203.435 74.6484V77.2876H195.214V74.6484H203.435ZM210.138 74.6484V91H206.769V74.6484H210.138ZM216.651 81.6338V84.2617H209.217V81.6338H216.651ZM217.438 74.6484V77.2876H209.217V74.6484H217.438Z" fill="#00B4FF"/>
<path d="M32.8165 28.7084L32.7233 28.6002L32.5828 28.6286L32.5429 28.6983L31.8781 31.4488L31.8662 31.4872L31.7341 31.5966L31.5654 31.562L31.338 31.3785L30.4354 30.679L29.7277 30.2431L29.194 30.0523L29.0024 30.0536L28.8449 30.1157L28.7401 30.2346L28.6735 30.416L28.6113 30.4978L28.5065 30.5054L28.4902 30.4983L28.3611 30.3503L28.2025 30.0251L27.9435 29.5135L27.673 29.229L27.3685 29.0894L26.9459 29.0605L26.4678 29.1984L25.9959 29.489L25.5636 29.9056L25.4416 29.9638L25.3213 29.9066L25.3063 29.8856L24.9992 29.4402L24.6546 29.0703L24.2595 28.7607L23.8379 28.5291L23.1204 28.3163L22.3758 28.2828L21.5931 28.4261L20.837 28.731L20.1249 29.1904L19.5014 29.7802L19.0096 30.4562L18.6565 31.2192L18.5962 31.297L18.5167 31.2406L18.3033 30.9303L17.7556 30.165L17.3067 29.6676L16.8588 29.335L16.4043 29.1568L16.0563 29.1119L15.7611 29.2182L15.2079 29.824L14.8035 30.4994L14.5477 31.2611L14.4488 32.0959L14.4192 32.1918L14.3374 32.1297L14.123 31.7826L13.9076 31.2875L13.579 30.6078L13.2913 30.2458L12.9882 29.9641L12.6474 29.741L12.2941 29.5971L11.6091 29.5266L10.8338 29.6974L10.0178 30.1068L9.15415 30.7372L8.20476 31.6375L7.24626 32.737L6.30499 34.0084L5.52744 35.2591L5.44161 35.3064L5.35919 35.2512L5.35775 35.1877L6.0991 32.9904L6.92869 30.8458L7.84363 28.7553L8.84973 26.7166L9.54758 25.5715L10.4528 24.4053L11.5778 23.1896L13.2323 21.5899L15.0663 19.8047L15.1831 19.7418L15.3181 19.7594L18.5381 21.2245L21.2005 22.2755L23.6465 23.051L25.9998 23.5832L26.0249 23.5869L26.1824 23.5248L26.2373 23.3649L25.985 20.6218L26.0185 20.4333L26.1734 20.5442L26.9527 21.4778L27.0851 21.5571L27.2389 21.5369L28.4046 20.9458L28.5233 20.8282L28.5503 20.6658L28.4117 19.6988L28.4536 19.5913L28.5667 19.5703L28.6131 19.6026L30.4696 21.6356L30.559 21.6745L30.6495 21.6388L30.6577 21.6255L31.2777 20.6763L31.7879 19.6794L32.0148 19.1348L33.7558 14.3009L34.8957 10.7123L34.9999 10.4723L35.1568 10.289L35.4073 10.1464L35.7279 10.0875L37.6503 10.0309L39.3964 10.0742L41.0179 10.2206L42.5906 10.4738L44.5814 10.9669L52.2738 13.3292L52.687 13.4798L52.817 13.5702L52.6602 13.6084L52.2213 13.5893L50.7962 13.5138L49.465 13.5228L48.2412 13.6074L47.1312 13.7753L46.1809 14.015L45.3735 14.3266L44.692 14.7268L44.1815 15.1843L43.9101 15.5476L43.6816 15.9681L43.5059 16.4285L43.3952 16.9173L43.3546 17.3784L43.3844 17.8387L43.4849 18.2475L43.6566 18.6317L43.6771 18.718L43.5886 18.7158L42.1291 18.2965L40.8984 18.1242L39.8523 18.1893L39.3929 18.3064L38.9558 18.4888L38.3524 18.8818L37.7995 19.437L37.3228 20.1341L36.8964 21.0103L36.7182 21.6099L36.6621 22.2626L36.7268 22.9654L36.9125 23.7183L36.8632 23.7984L36.8515 23.803L36.0693 23.845L35.4217 24.1003L34.9463 24.5272L34.5788 25.134L34.5396 25.4192L34.7166 26.6375L34.6914 26.7789L34.5518 26.7497L34.1367 26.5087L34.0047 26.4731L33.8752 26.5039L33.4902 26.7669L33.264 27.0652L33.1795 27.321L33.1544 27.5906L33.266 28.3525L33.3837 29.1895L33.3488 29.2977L33.2383 29.2738L33.0161 29.095L32.8716 28.8823L32.8165 28.7084Z" fill="#30304B"/>
<path d="M218.619 49.4689L218.652 49.3812L218.591 49.3099L218.538 49.3092L216.754 49.8036L216.728 49.809L216.624 49.7683L216.59 49.6608L216.623 49.4725L216.736 48.734L216.76 48.1909L216.699 47.8251L216.638 47.716L216.552 47.6457L216.451 47.6236L216.326 47.6431L216.259 47.6336L216.222 47.5761L216.221 47.5645L216.264 47.4436L216.4 47.2496L216.61 46.9389L216.686 46.6938L216.669 46.4753L216.552 46.2245L216.321 45.995L216.005 45.8176L215.629 45.7029L215.557 45.6516L215.551 45.5647L215.559 45.5495L215.716 45.2323L215.818 44.9177L215.869 44.5934L215.867 44.2787L215.761 43.8008L215.543 43.3645L215.213 42.9626L214.798 42.6272L214.309 42.3662L213.774 42.1972L213.231 42.1309L212.682 42.1717L212.619 42.1619L212.626 42.0985L212.735 41.8779L212.999 41.3214L213.14 40.9067L213.188 40.5449L213.145 40.2284L213.06 40.0151L212.906 39.8802L212.384 39.7565L211.869 39.74L211.352 39.8359L210.843 40.0447L210.779 40.0583L210.789 39.9918L210.919 39.7589L211.134 39.4784L211.418 39.0744L211.533 38.7949L211.598 38.532L211.617 38.2663L211.587 38.0185L211.41 37.6044L211.065 37.2155L210.572 36.8791L209.937 36.5858L209.12 36.3292L208.187 36.1308L207.161 35.9968L206.199 35.9499L206.144 35.9159L206.15 35.8512L206.186 35.8302L207.678 35.5555L209.167 35.348L210.653 35.2065L212.139 35.1336L213.015 35.1685L213.97 35.3153L215.023 35.572L216.463 36.0093L218.067 36.4903L218.14 36.5371L218.173 36.6199L218.359 38.9266L218.604 40.7828L218.938 42.4278L219.382 43.9424L219.388 43.9579L219.474 44.0282L219.583 44.0087L221.071 42.9925L221.189 42.9517L221.175 43.0755L220.889 43.8178L220.886 43.9187L220.946 44.0003L221.655 44.4788L221.76 44.5093L221.861 44.4731L222.37 44.0864L222.445 44.0762L222.493 44.1341L222.489 44.171L221.917 45.8786L221.923 45.9422L221.972 45.9825L221.982 45.983L222.722 46.0357L223.454 46.0105L223.838 45.967L227.155 45.4257L229.569 44.9365L229.739 44.9198L229.894 44.9513L230.055 45.0491L230.191 45.2137L230.834 46.2947L231.364 47.3068L231.796 48.2804L232.151 49.26L232.502 50.5549L233.597 55.7037L233.643 55.9879L233.632 56.0909L233.561 56.0134L233.432 55.7564L233.022 54.9177L232.594 54.1595L232.156 53.4867L231.707 52.9054L231.268 52.4384L230.833 52.0758L230.388 51.8134L229.964 51.667L229.67 51.6274L229.357 51.6304L229.038 51.6763L228.723 51.7684L228.447 51.8918L228.193 52.0551L227.991 52.2426L227.826 52.4628L227.784 52.502L227.757 52.4507L227.532 51.483L227.24 50.7246L226.87 50.1472L226.657 49.9218L226.414 49.73L225.997 49.5099L225.504 49.3703L224.954 49.3193L224.317 49.3541L223.918 49.4429L223.527 49.6183L223.146 49.8787L222.774 50.2242L222.713 50.2215L222.706 50.2163L222.434 49.7825L222.082 49.4934L221.687 49.3573L221.223 49.3401L221.048 49.4084L220.407 49.8968L220.318 49.9274L220.291 49.8383L220.297 49.5244L220.275 49.4376L220.216 49.3734L219.943 49.2369L219.701 49.2024L219.528 49.2354L219.366 49.3067L218.966 49.6127L218.525 49.9461L218.452 49.9605L218.43 49.8898L218.462 49.7059L218.537 49.5556L218.619 49.4689Z" fill="#30304B"/>
<defs>
<linearGradient id="paint0_linear_13_7952" x1="191.837" y1="70.8782" x2="210.054" y2="63.0584" gradientUnits="userSpaceOnUse">
<stop stop-color="#181689"/>
<stop offset="0.446962" stop-color="#00B4FF"/>
<stop offset="0.956209" stop-color="#181689"/>
</linearGradient>
<linearGradient id="paint1_linear_13_7952" x1="178.094" y1="78.5017" x2="211.092" y2="65.7977" gradientUnits="userSpaceOnUse">
<stop stop-color="#181689"/>
<stop offset="0.446962" stop-color="#00B4FF"/>
<stop offset="0.956209" stop-color="#181689"/>
</linearGradient>
<linearGradient id="paint2_linear_13_7952" x1="185.267" y1="48.2337" x2="201.287" y2="92.1176" gradientUnits="userSpaceOnUse">
<stop stop-color="#00B4FF"/>
<stop offset="1" stop-color="#201CFE"/>
</linearGradient>
<linearGradient id="paint3_linear_13_7952" x1="134.508" y1="91.7092" x2="232.73" y2="37.6867" gradientUnits="userSpaceOnUse">
<stop stop-color="#181689"/>
<stop offset="0.52" stop-color="#00B4FF"/>
<stop offset="0.956209" stop-color="#181689"/>
</linearGradient>
<linearGradient id="paint4_linear_13_7952" x1="156.417" y1="17.6933" x2="192.161" y2="105.213" gradientUnits="userSpaceOnUse">
<stop stop-color="#00B4FF"/>
<stop offset="1" stop-color="#201CFE"/>
</linearGradient>
<linearGradient id="paint5_linear_13_7952" x1="155.575" y1="41.0472" x2="173.791" y2="33.2273" gradientUnits="userSpaceOnUse">
<stop stop-color="#181689"/>
<stop offset="0.446962" stop-color="#00B4FF"/>
<stop offset="0.956209" stop-color="#181689"/>
</linearGradient>
<linearGradient id="paint6_linear_13_7952" x1="141.832" y1="48.6707" x2="174.83" y2="35.9667" gradientUnits="userSpaceOnUse">
<stop stop-color="#181689"/>
<stop offset="0.446962" stop-color="#00B4FF"/>
<stop offset="0.956209" stop-color="#181689"/>
</linearGradient>
<linearGradient id="paint7_linear_13_7952" x1="149.004" y1="18.3858" x2="165.024" y2="62.2696" gradientUnits="userSpaceOnUse">
<stop stop-color="#00B4FF"/>
<stop offset="1" stop-color="#201CFE"/>
</linearGradient>
<radialGradient id="paint8_radial_13_7952" cx="0" cy="0" r="1" gradientUnits="userSpaceOnUse" gradientTransform="translate(108.136 23.1823) scale(9.2057 9.19182)">
<stop offset="0.47" stop-color="#FCC10A"/>
<stop offset="0.6" stop-color="#FABE09"/>
<stop offset="0.69" stop-color="#F6B509"/>
<stop offset="0.76" stop-color="#EEA608"/>
<stop offset="0.83" stop-color="#E39007"/>
<stop offset="0.87" stop-color="#DA7E06"/>
</radialGradient>
<radialGradient id="paint9_radial_13_7952" cx="0" cy="0" r="1" gradientUnits="userSpaceOnUse" gradientTransform="translate(129.282 32.6964) scale(13.299 13.279)">
<stop offset="0.28" stop-color="#FCC10A"/>
<stop offset="0.47" stop-color="#FABE09"/>
<stop offset="0.6" stop-color="#F6B509"/>
<stop offset="0.71" stop-color="#EEA608"/>
<stop offset="0.81" stop-color="#E39007"/>
<stop offset="0.87" stop-color="#DA7E06"/>
</radialGradient>
<radialGradient id="paint10_radial_13_7952" cx="0" cy="0" r="1" gradientUnits="userSpaceOnUse" gradientTransform="translate(120.111 49.3162) scale(39.8801 39.8199)">
<stop offset="0.47" stop-color="#FCC10A"/>
<stop offset="0.6" stop-color="#FABE09"/>
<stop offset="0.69" stop-color="#F6B509"/>
<stop offset="0.76" stop-color="#EEA608"/>
<stop offset="0.83" stop-color="#E39007"/>
<stop offset="0.87" stop-color="#DA7E06"/>
</radialGradient>
<radialGradient id="paint11_radial_13_7952" cx="0" cy="0" r="1" gradientUnits="userSpaceOnUse" gradientTransform="translate(105.64 44.9577) scale(35.8377 35.7837)">
<stop offset="0.47" stop-color="#FCC10A"/>
<stop offset="0.6" stop-color="#FABE09"/>
<stop offset="0.69" stop-color="#F6B509"/>
<stop offset="0.76" stop-color="#EEA608"/>
<stop offset="0.83" stop-color="#E39007"/>
<stop offset="0.87" stop-color="#DA7E06"/>
</radialGradient>
<radialGradient id="paint12_radial_13_7952" cx="0" cy="0" r="1" gradientUnits="userSpaceOnUse" gradientTransform="translate(110.888 19.6718) scale(6.99769 6.98714)">
<stop stop-color="#E2D6C2"/>
<stop offset="1"/>
</radialGradient>
<radialGradient id="paint13_radial_13_7952" cx="0" cy="0" r="1" gradientUnits="userSpaceOnUse" gradientTransform="translate(130.522 24.7086) scale(4.5519 4.54503)">
<stop stop-color="#E2D6C2"/>
<stop offset="1"/>
</radialGradient>
<radialGradient id="paint14_radial_13_7952" cx="0" cy="0" r="1" gradientUnits="userSpaceOnUse" gradientTransform="translate(146.59 39.4461) scale(13.265 13.245)">
<stop stop-color="#E2D6C2"/>
<stop offset="1"/>
</radialGradient>
<radialGradient id="paint15_radial_13_7952" cx="0" cy="0" r="1" gradientUnits="userSpaceOnUse" gradientTransform="translate(87.534 23.2162) scale(13.4689 13.4485)">
<stop stop-color="#E2D6C2"/>
<stop offset="1"/>
</radialGradient>
<linearGradient id="paint16_linear_13_7952" x1="109.529" y1="17.6367" x2="134.548" y2="17.6367" gradientUnits="userSpaceOnUse">
<stop stop-color="#583A0A"/>
<stop offset="1" stop-color="#A16000"/>
</linearGradient>
<linearGradient id="paint17_linear_13_7952" x1="110.752" y1="17.128" x2="133.817" y2="17.128" gradientUnits="userSpaceOnUse">
<stop stop-color="#10120E"/>
<stop offset="1" stop-color="#623E04"/>
</linearGradient>
<linearGradient id="paint18_linear_13_7952" x1="123.321" y1="19.0782" x2="136.144" y2="19.0782" gradientUnits="userSpaceOnUse">
<stop stop-color="#583A0A"/>
<stop offset="1" stop-color="#A16000"/>
</linearGradient>
<linearGradient id="paint19_linear_13_7952" x1="123.711" y1="9.39455" x2="138.692" y2="9.39455" gradientUnits="userSpaceOnUse">
<stop stop-color="#583A0A"/>
<stop offset="1" stop-color="#A16000"/>
</linearGradient>
<linearGradient id="paint20_linear_13_7952" x1="134.446" y1="16.2291" x2="144.076" y2="16.2291" gradientUnits="userSpaceOnUse">
<stop stop-color="#583A0A"/>
<stop offset="1" stop-color="#A16000"/>
</linearGradient>
<radialGradient id="paint21_radial_13_7952" cx="0" cy="0" r="1" gradientUnits="userSpaceOnUse" gradientTransform="translate(126.497 3.66238) scale(27.736 27.6942)">
<stop offset="0.79" stop-color="white"/>
<stop offset="0.8" stop-color="#E8E3DC"/>
<stop offset="0.85" stop-color="#B09D82"/>
<stop offset="0.89" stop-color="#866A41"/>
<stop offset="0.91" stop-color="#6C4A18"/>
<stop offset="0.93" stop-color="#633E09"/>
</radialGradient>
<radialGradient id="paint22_radial_13_7952" cx="0" cy="0" r="1" gradientUnits="userSpaceOnUse" gradientTransform="translate(109.784 51.5548) scale(46.4361 46.3661)">
<stop offset="0.56" stop-color="#DA7E06"/>
<stop offset="0.76" stop-color="#F3AF09"/>
<stop offset="0.83" stop-color="#E99C07"/>
<stop offset="0.92" stop-color="#DA7E06"/>
</radialGradient>
<linearGradient id="paint23_linear_13_7952" x1="121.028" y1="54.0987" x2="149.358" y2="54.0987" gradientUnits="userSpaceOnUse">
<stop stop-color="#FFEADB"/>
<stop offset="1" stop-color="#FFF3DE"/>
</linearGradient>
<radialGradient id="paint24_radial_13_7952" cx="0" cy="0" r="1" gradientUnits="userSpaceOnUse" gradientTransform="translate(123.491 55.1996) scale(47.8968 47.8246)">
<stop offset="0.57" stop-color="#DA7E06"/>
<stop offset="0.84" stop-color="#F3AF09"/>
<stop offset="0.89" stop-color="#E99C07"/>
<stop offset="0.96" stop-color="#DA7E06"/>
</radialGradient>
<linearGradient id="paint25_linear_13_7952" x1="79.4822" y1="46.2636" x2="104.467" y2="46.2636" gradientUnits="userSpaceOnUse">
<stop stop-color="#FFEADB"/>
<stop offset="1" stop-color="#FFF3DE"/>
</linearGradient>
<radialGradient id="paint26_radial_13_7952" cx="0" cy="0" r="1" gradientUnits="userSpaceOnUse" gradientTransform="translate(78.4642 44.9408) scale(65.1533 65.055)">
<stop offset="0.64" stop-color="#DA7E06"/>
<stop offset="0.82" stop-color="#F3AF09"/>
<stop offset="0.87" stop-color="#E99C07"/>
<stop offset="0.93" stop-color="#DA7E06"/>
</radialGradient>
<linearGradient id="paint27_linear_13_7952" x1="105.028" y1="62.68" x2="138.335" y2="62.68" gradientUnits="userSpaceOnUse">
<stop stop-color="#FFEADB"/>
<stop offset="1" stop-color="#FFF3DE"/>
</linearGradient>
<linearGradient id="paint28_linear_13_7952" x1="92.1878" y1="47.2981" x2="118.168" y2="55.1719" gradientUnits="userSpaceOnUse">
<stop stop-color="#DA7E06"/>
<stop offset="0.05" stop-color="#DE8706"/>
<stop offset="0.25" stop-color="#EEA608"/>
<stop offset="0.42" stop-color="#F8BA09"/>
<stop offset="0.54" stop-color="#FCC10A"/>
<stop offset="0.65" stop-color="#F6B609"/>
<stop offset="0.84" stop-color="#E89A07"/>
<stop offset="1" stop-color="#DA7E06"/>
</linearGradient>
<linearGradient id="paint29_linear_13_7952" x1="90.0137" y1="54.4888" x2="115.994" y2="62.3456" gradientUnits="userSpaceOnUse">
<stop stop-color="#FFEADB"/>
<stop offset="1" stop-color="#FFF3DE"/>
</linearGradient>
<radialGradient id="paint30_radial_13_7952" cx="0" cy="0" r="1" gradientUnits="userSpaceOnUse" gradientTransform="translate(140.985 41.8712) scale(16.3732 16.3485)">
<stop stop-color="#E2D6C2"/>
<stop offset="1"/>
</radialGradient>
<radialGradient id="paint31_radial_13_7952" cx="0" cy="0" r="1" gradientUnits="userSpaceOnUse" gradientTransform="translate(93.5126 34.0361) scale(18.1906 18.1632)">
<stop stop-color="#E2D6C2"/>
<stop offset="1"/>
</radialGradient>
<radialGradient id="paint32_radial_13_7952" cx="0" cy="0" r="1" gradientUnits="userSpaceOnUse" gradientTransform="translate(126.599 45.2461) scale(19.923 19.893)">
<stop stop-color="#E2D6C2"/>
<stop offset="1"/>
</radialGradient>
<radialGradient id="paint33_radial_13_7952" cx="0" cy="0" r="1" gradientUnits="userSpaceOnUse" gradientTransform="translate(109.206 42.2443) scale(23.8805 23.8445)">
<stop stop-color="#E2D6C2"/>
<stop offset="1"/>
</radialGradient>
<radialGradient id="paint34_radial_13_7952" cx="0" cy="0" r="1" gradientUnits="userSpaceOnUse" gradientTransform="translate(141.358 42.1255) scale(15.0824 15.0597)">
<stop stop-color="#E2D6C2"/>
<stop offset="1"/>
</radialGradient>
<radialGradient id="paint35_radial_13_7952" cx="0" cy="0" r="1" gradientUnits="userSpaceOnUse" gradientTransform="translate(92.1538 34.0022) scale(14.7257 14.7035)">
<stop stop-color="#E2D6C2"/>
<stop offset="1"/>
</radialGradient>
<radialGradient id="paint36_radial_13_7952" cx="0" cy="0" r="1" gradientUnits="userSpaceOnUse" gradientTransform="translate(127.669 46.1279) scale(13.6727 13.6521)">
<stop stop-color="#E2D6C2"/>
<stop offset="1"/>
</radialGradient>
<radialGradient id="paint37_radial_13_7952" cx="0" cy="0" r="1" gradientUnits="userSpaceOnUse" gradientTransform="translate(105.47 42.1595) scale(17.1545 17.1287)">
<stop stop-color="#E2D6C2"/>
<stop offset="1"/>
</radialGradient>
<radialGradient id="paint38_radial_13_7952" cx="0" cy="0" r="1" gradientUnits="userSpaceOnUse" gradientTransform="translate(112.569 34.3244) scale(47.2684 47.1971)">
<stop stop-color="white"/>
<stop offset="0.64" stop-color="#FFFEFD"/>
<stop offset="1" stop-color="#6B1400"/>
</radialGradient>
<radialGradient id="paint39_radial_13_7952" cx="0" cy="0" r="1" gradientUnits="userSpaceOnUse" gradientTransform="translate(112.829 60.0326) rotate(12.2321) scale(31.9766 35.4808)">
<stop stop-color="#E02229"/>
<stop offset="0.07" stop-color="#C21D23"/>
<stop offset="0.2" stop-color="#8F151A"/>
<stop offset="0.33" stop-color="#630F12"/>
<stop offset="0.46" stop-color="#3F090B"/>
<stop offset="0.6" stop-color="#230506"/>
<stop offset="0.73" stop-color="#0F0202"/>
<stop offset="0.86" stop-color="#030000"/>
<stop offset="1"/>
</radialGradient>
<radialGradient id="paint40_radial_13_7952" cx="0" cy="0" r="1" gradientUnits="userSpaceOnUse" gradientTransform="translate(98.3473 41.6735) rotate(12.2321) scale(11.5403 12.805)">
<stop stop-color="#E02229"/>
<stop offset="0.25" stop-color="#AB1A1F"/>
<stop offset="0.83" stop-color="#270607"/>
<stop offset="1"/>
</radialGradient>
<linearGradient id="paint41_linear_13_7952" x1="89.3683" y1="33.6907" x2="104.05" y2="48.1808" gradientUnits="userSpaceOnUse">
<stop stop-color="#FF161F"/>
<stop offset="0.1" stop-color="#FF4C17"/>
<stop offset="0.28" stop-color="#FFAB0B"/>
<stop offset="0.41" stop-color="#FFE703"/>
<stop offset="0.47" stop-color="#FFFF00"/>
<stop offset="0.52" stop-color="#FBF400"/>
<stop offset="0.6" stop-color="#F3D700"/>
<stop offset="0.7" stop-color="#E5A900"/>
<stop offset="0.82" stop-color="#D26900"/>
<stop offset="0.96" stop-color="#BA1800"/>
<stop offset="1" stop-color="#B30001"/>
</linearGradient>
<radialGradient id="paint42_radial_13_7952" cx="0" cy="0" r="1" gradientUnits="userSpaceOnUse" gradientTransform="translate(131.934 48.9603) rotate(-167.768) scale(11.5403 12.805)">
<stop stop-color="#E02229"/>
<stop offset="0.25" stop-color="#AB1A1F"/>
<stop offset="0.83" stop-color="#270607"/>
<stop offset="1"/>
</radialGradient>
<linearGradient id="paint43_linear_13_7952" x1="144.214" y1="45.5922" x2="124.819" y2="52.6678" gradientUnits="userSpaceOnUse">
<stop stop-color="#FF161F"/>
<stop offset="0.1" stop-color="#FF4C17"/>
<stop offset="0.28" stop-color="#FFAB0B"/>
<stop offset="0.41" stop-color="#FFE703"/>
<stop offset="0.47" stop-color="#FFFF00"/>
<stop offset="0.52" stop-color="#FBF400"/>
<stop offset="0.6" stop-color="#F3D700"/>
<stop offset="0.7" stop-color="#E5A900"/>
<stop offset="0.82" stop-color="#D26900"/>
<stop offset="0.96" stop-color="#BA1800"/>
<stop offset="1" stop-color="#B30001"/>
</linearGradient>
<linearGradient id="paint44_linear_13_7952" x1="99.5601" y1="69.3071" x2="107.078" y2="70.9419" gradientUnits="userSpaceOnUse">
<stop stop-color="#FF161F"/>
<stop offset="0.1" stop-color="#FF4C17"/>
<stop offset="0.28" stop-color="#FFAB0B"/>
<stop offset="0.41" stop-color="#FFE703"/>
<stop offset="0.47" stop-color="#FFFF00"/>
<stop offset="0.52" stop-color="#FBF400"/>
<stop offset="0.6" stop-color="#F3D700"/>
<stop offset="0.7" stop-color="#E5A900"/>
<stop offset="0.82" stop-color="#D26900"/>
<stop offset="0.96" stop-color="#BA1800"/>
<stop offset="1" stop-color="#B30001"/>
</linearGradient>
<linearGradient id="paint45_linear_13_7952" x1="113.09" y1="72.466" x2="119.082" y2="73.7688" gradientUnits="userSpaceOnUse">
<stop stop-color="#FF161F"/>
<stop offset="0.1" stop-color="#FF4C17"/>
<stop offset="0.28" stop-color="#FFAB0B"/>
<stop offset="0.41" stop-color="#FFE703"/>
<stop offset="0.47" stop-color="#FFFF00"/>
<stop offset="0.52" stop-color="#FBF400"/>
<stop offset="0.6" stop-color="#F3D700"/>
<stop offset="0.7" stop-color="#E5A900"/>
<stop offset="0.82" stop-color="#D26900"/>
<stop offset="0.96" stop-color="#BA1800"/>
<stop offset="1" stop-color="#B30001"/>
</linearGradient>
<linearGradient id="paint46_linear_13_7952" x1="146.135" y1="57.2602" x2="123.866" y2="71.3054" gradientUnits="userSpaceOnUse">
<stop stop-color="#180000"/>
<stop offset="0.39" stop-color="#BE0002"/>
<stop offset="1" stop-color="#FFFF00"/>
</linearGradient>
<linearGradient id="paint47_linear_13_7952" x1="84.2445" y1="43.4263" x2="96.0449" y2="64.6613" gradientUnits="userSpaceOnUse">
<stop stop-color="#180000"/>
<stop offset="0.39" stop-color="#BE0002"/>
<stop offset="1" stop-color="#FFFF00"/>
</linearGradient>
<linearGradient id="paint48_linear_13_7952" x1="107.436" y1="69.2965" x2="113.493" y2="70.6137" gradientUnits="userSpaceOnUse">
<stop stop-color="#760304"/>
<stop offset="0.11" stop-color="#FF161F"/>
<stop offset="0.18" stop-color="#FF4C17"/>
<stop offset="0.32" stop-color="#FFAB0B"/>
<stop offset="0.42" stop-color="#FFE703"/>
<stop offset="0.47" stop-color="#FFFF00"/>
<stop offset="0.51" stop-color="#FBF400"/>
<stop offset="0.58" stop-color="#F3D700"/>
<stop offset="0.66" stop-color="#E5A900"/>
<stop offset="0.77" stop-color="#D26900"/>
<stop offset="0.88" stop-color="#BA1800"/>
<stop offset="0.92" stop-color="#B30001"/>
<stop offset="1" stop-color="#760304"/>
</linearGradient>
<radialGradient id="paint49_radial_13_7952" cx="0" cy="0" r="1" gradientUnits="userSpaceOnUse" gradientTransform="translate(114.969 51.5591) rotate(12.2321) scale(6.74077 7.47946)">
<stop stop-color="#E02229"/>
<stop offset="0.25" stop-color="#AB1A1F"/>
<stop offset="0.83" stop-color="#270607"/>
<stop offset="1"/>
</radialGradient>
<linearGradient id="paint50_linear_13_7952" x1="108.766" y1="54.8684" x2="118.839" y2="57.0589" gradientUnits="userSpaceOnUse">
<stop stop-color="#FF161F"/>
<stop offset="0.1" stop-color="#FF4C17"/>
<stop offset="0.28" stop-color="#FFAB0B"/>
<stop offset="0.41" stop-color="#FFE703"/>
<stop offset="0.47" stop-color="#FFFF00"/>
<stop offset="0.52" stop-color="#FBF400"/>
<stop offset="0.6" stop-color="#F3D700"/>
<stop offset="0.7" stop-color="#E5A900"/>
<stop offset="0.82" stop-color="#D26900"/>
<stop offset="0.96" stop-color="#BA1800"/>
<stop offset="1" stop-color="#B30001"/>
</linearGradient>
<linearGradient id="paint51_linear_13_7952" x1="109.102" y1="64.8331" x2="109.655" y2="62.2805" gradientUnits="userSpaceOnUse">
<stop stop-color="#FFFF00"/>
<stop offset="0.15" stop-color="#FDFB00"/>
<stop offset="0.28" stop-color="#FAF000"/>
<stop offset="0.4" stop-color="#F5DF00"/>
<stop offset="0.52" stop-color="#EEC500"/>
<stop offset="0.63" stop-color="#E4A500"/>
<stop offset="0.74" stop-color="#D87D00"/>
<stop offset="0.85" stop-color="#CA4E00"/>
<stop offset="0.95" stop-color="#BA1900"/>
<stop offset="1" stop-color="#B30001"/>
</linearGradient>
<linearGradient id="paint52_linear_13_7952" x1="113.964" y1="66.1303" x2="114.564" y2="63.3622" gradientUnits="userSpaceOnUse">
<stop stop-color="#FFFF00"/>
<stop offset="0.15" stop-color="#FDFB00"/>
<stop offset="0.28" stop-color="#FAF000"/>
<stop offset="0.4" stop-color="#F5DF00"/>
<stop offset="0.52" stop-color="#EEC500"/>
<stop offset="0.63" stop-color="#E4A500"/>
<stop offset="0.74" stop-color="#D87D00"/>
<stop offset="0.85" stop-color="#CA4E00"/>
<stop offset="0.95" stop-color="#BA1900"/>
<stop offset="1" stop-color="#B30001"/>
</linearGradient>
<linearGradient id="paint53_linear_13_7952" x1="125.029" y1="66.6375" x2="125.568" y2="64.1512" gradientUnits="userSpaceOnUse">
<stop stop-color="#FFFF00"/>
<stop offset="0.15" stop-color="#FDFB00"/>
<stop offset="0.28" stop-color="#FAF000"/>
<stop offset="0.4" stop-color="#F5DF00"/>
<stop offset="0.52" stop-color="#EEC500"/>
<stop offset="0.63" stop-color="#E4A500"/>
<stop offset="0.74" stop-color="#D87D00"/>
<stop offset="0.85" stop-color="#CA4E00"/>
<stop offset="0.95" stop-color="#BA1900"/>
<stop offset="1" stop-color="#B30001"/>
</linearGradient>
<linearGradient id="paint54_linear_13_7952" x1="96.9727" y1="59.3055" x2="97.3788" y2="57.4325" gradientUnits="userSpaceOnUse">
<stop stop-color="#FFFF00"/>
<stop offset="0.15" stop-color="#FDFB00"/>
<stop offset="0.28" stop-color="#FAF000"/>
<stop offset="0.4" stop-color="#F5DF00"/>
<stop offset="0.52" stop-color="#EEC500"/>
<stop offset="0.63" stop-color="#E4A500"/>
<stop offset="0.74" stop-color="#D87D00"/>
<stop offset="0.85" stop-color="#CA4E00"/>
<stop offset="0.95" stop-color="#BA1900"/>
<stop offset="1" stop-color="#B30001"/>
</linearGradient>
<linearGradient id="paint55_linear_13_7952" x1="94.8409" y1="64.1537" x2="101.085" y2="65.6507" gradientUnits="userSpaceOnUse">
<stop stop-color="#180000"/>
<stop offset="0.12" stop-color="#BE0002"/>
<stop offset="1" stop-color="#FFFF00"/>
</linearGradient>
<linearGradient id="paint56_linear_13_7952" x1="119.274" y1="69.6068" x2="125.182" y2="70.8915" gradientUnits="userSpaceOnUse">
<stop stop-color="#FFFF00"/>
<stop offset="0.88" stop-color="#BE0002"/>
<stop offset="0.99" stop-color="#180000"/>
</linearGradient>
<linearGradient id="paint57_linear_13_7952" x1="59.0718" y1="70.4609" x2="60.1139" y2="62.3659" gradientUnits="userSpaceOnUse">
<stop stop-color="#181689"/>
<stop offset="0.52" stop-color="#00B4FF"/>
<stop offset="0.956209" stop-color="#181689"/>
</linearGradient>
<linearGradient id="paint58_linear_13_7952" x1="43.6911" y1="86.2727" x2="91.5748" y2="71.6839" gradientUnits="userSpaceOnUse">
<stop stop-color="#181689"/>
<stop offset="0.446962" stop-color="#00B4FF"/>
<stop offset="0.956209" stop-color="#181689"/>
</linearGradient>
<linearGradient id="paint59_linear_13_7952" x1="35.4002" y1="43.9455" x2="76.3711" y2="4.62344" gradientUnits="userSpaceOnUse">
<stop stop-color="#181689"/>
<stop offset="0.52" stop-color="#00B4FF"/>
<stop offset="0.956209" stop-color="#181689"/>
</linearGradient>
<linearGradient id="paint60_linear_13_7952" x1="51.4467" y1="20.1438" x2="95.0798" y2="104.653" gradientUnits="userSpaceOnUse">
<stop stop-color="#00B4FF"/>
<stop offset="1" stop-color="#201CFE"/>
</linearGradient>
</defs>
</svg>
